<?xml version="1.0" standalone="no"?>
<!DOCTYPE svg PUBLIC "-//W3C//DTD SVG 1.1//EN" "http://www.w3.org/Graphics/SVG/1.1/DTD/svg11.dtd">
<svg xmlns="http://www.w3.org/2000/svg">
<defs >
<font id="PTSerif" horiz-adv-x="601" ><font-face
    font-family="PT Serif"
    units-per-em="1000"
    panose-1="2 10 7 3 4 5 5 2 2 4"
    ascent="1039"
    descent="-286"
    alphabetic="0" />
<glyph unicode=" " glyph-name="space" horiz-adv-x="270" />
<glyph unicode="!" glyph-name="exclam" horiz-adv-x="344" d="M172 218L122 412V690Q132 696 152 698T194 701T235 699T266 690V412L216 218H172ZM110 71Q110 107 133 129T195 151Q233 151 257 129T281 71Q281 35 257 14T195 -8Q157 -8 134 13T110 71Z" />
<glyph unicode="&quot;" glyph-name="quotedbl" horiz-adv-x="416" d="M221 670Q226 683 244 691T286 700Q307 700 326 693T351 670L305 486H267L221 670ZM65 670Q70 683 88 691T130 700Q151 700 170 693T195 670L149 486H111L65 670Z" />
<glyph unicode="#" glyph-name="numbersign" horiz-adv-x="565" d="M314 220H190L152 58H81L119 220H38L57 284H134L165 416H88L107 480H181L220 642H290L252 480H376L415 642H485L446 480H525L503 416H430L399 284H475L453 220H384L346 58H276L314 220ZM205 284H329L360
416H236L205 284Z" />
<glyph unicode="$" glyph-name="dollar" horiz-adv-x="565" d="M246 -12Q216 -12 186 -8T130 4T84 19T54 37Q56 76 64 114T81 175H123L174 78Q184 70 200 63T246 53V306Q244 307 242 307T237 310L214 320Q183 333 154 351T102 394T65 452T51 527Q51 568 65 600T106
656T168 693T246 710V760H316V711Q364 709 402 700T476 676Q476 661 474 645T467 613T458 584T449 564H408L357 641Q349 643 340 644T316 646V406L354 390Q384 376 414 359T467 317T505 261T520 185Q520 106 468 55T316 -9V-70H246V-12ZM390 166Q390 209 366 234T306
279V58Q346 69 368 96T390 166ZM175 546Q175 504 198 479T256 434V644Q218 639 197 614T175 546Z" />
<glyph unicode="%" glyph-name="percent" horiz-adv-x="848" d="M691 715L739 673L154 -13L107 30L691 715ZM42 542Q42 581 56 612T95 665T156 700T234 712Q277 712 312 702T373 670T412 617T426 542Q426 503 412 472T373 418T313 384T234 372Q191 372 156 382T96
414T56 467T42 542ZM162 542Q162 423 234 423Q269 423 287 449T306 542Q306 608 288 634T234 661Q197 661 180 635T162 542ZM422 159Q422 198 436 229T475 282T536 317T614 329Q657 329 692 319T753 287T792 234T806 159Q806 120 792 89T753 35T693 1T614 -11Q571
-11 536 -1T476 31T436 84T422 159ZM542 159Q542 40 614 40Q649 40 667 66T686 159Q686 225 668 251T614 278Q577 278 560 252T542 159Z" />
<glyph unicode="&amp;" glyph-name="ampersand" horiz-adv-x="896" d="M529 116Q497 143 464 178T402 249T348 319T310 377Q281 341 268 309T255 232Q255 195 267 164T300 111T351 76T414 63Q444 63 475 75T529 116ZM324 582Q324 567 330 549T345 513T366 478T389
448Q423 474 439 511T453 590Q451 618 436 637T388 657Q355 657 340 634T324 582ZM676 0Q656 12 629 28T576 71Q545 39 489 14T361 -12Q294 -12 246 6T166 54T120 121T105 196Q105 242 122 280T165 349T218 400T268 434Q243 461 225 499T207 574Q207 599 217 624T249
668T302 700T376 712Q448 712 493 680T538 588Q538 559 528 533T502 484T464 441T418 403Q487 308 607 201Q615 212 625 238T642 297T651 367T645 437Q629 440 617 446T592 461V500H820V461Q793 444 754 437Q749 394 739 352T716 273T687 207T657 162Q692 131 728
107T799 63L850 39V0H676Z" />
<glyph unicode="&apos;" glyph-name="quotesingle" horiz-adv-x="240" d="M65 670Q70 683 88 691T130 700Q151 700 170 693T195 670L149 486H111L65 670Z" />
<glyph unicode="(" glyph-name="parenleft" horiz-adv-x="375" d="M327 -210Q279 -181 230 -143T140 -50T75 75T50 243Q50 330 73 399T136 524T225 623T330 702L360 671Q320 628 289 585T235 490T202 379T190 243Q190 170 202 109T237 -3T291 -98T360 -177L327 -210Z" />
<glyph unicode=")" glyph-name="parenright" horiz-adv-x="375" d="M15 -177Q52 -141 83 -97T136 1T171 117T184 253Q184 329 173 388T140 497T87 588T15 671L45 702Q102 669 152 626T241 528T302 405T325 253Q325 168 305 98T248 -30T160 -131T48 -210L15 -177Z" />
<glyph unicode="*" glyph-name="asterisk" horiz-adv-x="463" d="M58 597Q52 605 55 621T68 654T90 683T115 697L206 591Q206 576 193 569L58 597ZM118 429Q107 429 95 441T72 470T57 504T57 530L192 556Q206 548 206 535L118 429ZM291 395Q287 387 271 383T235
378T199 381T177 393L220 524Q234 532 247 524L291 395ZM405 530Q411 519 408 502T396 469T375 442T350 430L262 533Q262 546 274 554L405 530ZM352 696Q364 697 375 687T395 661T406 628T407 598L273 568Q261 577 261 590L352 696ZM177 731Q181 740 197 745T232
750T267 746T289 731L246 600Q233 592 220 600L177 731Z" />
<glyph unicode="+" glyph-name="plus" horiz-adv-x="565" d="M57 384H242V580H322V384H507V304H322V102H242V304H57V384Z" />
<glyph unicode="," glyph-name="comma" horiz-adv-x="306" d="M53 -131Q73 -125 89 -113T116 -86T134 -54T139 -21Q125 -3 106 8T64 26Q59 47 62 68T76 107T99 137T128 153Q149 152 169 144T205 120T230 80T240 24Q240 -7 228 -39T194 -98T142 -146T76 -175L53 -131Z" />
<glyph unicode="-" glyph-name="hyphen" horiz-adv-x="414" d="M66 327H348V237H66V327Z" />
<glyph unicode="." glyph-name="period" horiz-adv-x="296" d="M63 71Q63 107 86 129T147 151Q185 151 209 129T233 71Q233 35 209 14T147 -8Q109 -8 86 13T63 71Z" />
<glyph unicode="/" glyph-name="slash" horiz-adv-x="344" d="M318 716L378 691L13 -133L-46 -107L318 716Z" />
<glyph unicode="0" glyph-name="zero" horiz-adv-x="565" d="M23 350Q23 440 42 507T96 620T178 689T282 712Q402 712 472 622T542 350Q542 260 523 193T468 80T383 11T276 -12Q215 -12 168 12T89 83T40 197T23 350ZM173 350Q173 278 177 221T194 125T225 64T275
43Q310 43 332 60T368 114T387 209T392 350Q392 422 388 479T373 575T340 636T282 657Q250 657 229 640T196 586T178 491T173 350Z" />
<glyph unicode="1" glyph-name="one" horiz-adv-x="565" d="M466 0H120V43Q145 54 170 62T222 77V536L226 595Q198 586 168 583T106 581L101 618Q154 632 216 656T332 712H366V77Q391 71 416 63T466 43V0Z" />
<glyph unicode="2" glyph-name="two" horiz-adv-x="565" d="M141 478H107Q101 493 94 513T78 555T63 598T52 638Q87 668 141 690T274 712Q329 712 369 698T435 659T474 601T487 530Q487 469 459 415T390 313T302 225T217 151L165 116V112L226 118H398L447 230H481Q484
206 487 174T494 110T499 48T501 0H43V64Q69 87 102 117T169 184T236 262T295 345T336 432T352 518Q352 573 323 607T239 642Q222 642 209 640T178 633L141 478Z" />
<glyph unicode="3" glyph-name="three" horiz-adv-x="565" d="M257 53Q280 53 302 63T341 93T369 138T380 194Q380 228 369 252T339 293T296 316T248 324H190V364L340 560L374 595V599L320 593H169L130 491H96Q91 512 86 541T76 599T69 655T66 700H502V651L329
440L286 396V394L320 401Q367 399 404 384T467 342T506 280T520 203Q520 153 499 113T441 45T357 3T256 -12Q226 -12 196 -8T140 5T92 24T55 48L92 152H121Q127 145 137 134T159 109T182 83T201 61Q211 59 223 56T257 53Z" />
<glyph unicode="4" glyph-name="four" horiz-adv-x="565" d="M513 0H204V43Q253 60 296 67V180H0V225L383 712H437V245H560V180H437V67Q476 59 513 43V0ZM296 458L306 528H303L265 458L120 271L80 238L151 245H296V458Z" />
<glyph unicode="5" glyph-name="five" horiz-adv-x="565" d="M455 755H489Q489 740 488 716T484 667T477 620T469 585H195L177 442H260Q314 442 358 428T433 386T481 319T498 228Q498 171 477 127T418 52T331 5T223 -12Q165 -12 117 6T40 48L82 147H111Q118 140
127 129T146 106T165 82T181 61Q191 57 199 55T222 53Q252 53 278 63T322 93T352 138T363 197Q363 232 350 258T313 302T259 327T194 336L107 335L147 700H408L455 755Z" />
<glyph unicode="6" glyph-name="six" horiz-adv-x="565" d="M536 215Q536 163 517 121T464 50T387 4T292 -12Q230 -12 183 7T103 62T55 145T38 250Q38 344 71 422T160 560T290 660T449 718L464 675Q410 658 364 629T283 559T225 465T196 349Q204 362 216 374T247
397T288 414T342 421Q383 421 418 408T480 369T521 305T536 215ZM386 203Q386 351 287 351Q253 351 229 334T194 293Q191 279 190 261T188 225Q188 191 194 160T213 104T246 64T296 49Q321 49 338 61T365 95T381 144T386 203Z" />
<glyph unicode="7" glyph-name="seven" horiz-adv-x="565" d="M117 481H83Q78 502 73 532T64 594T56 653T53 700H521V653Q467 569 430 495T368 345T327 186T298 0H156Q192 145 249 276T384 540L421 588L371 583H156L117 481Z" />
<glyph unicode="8" glyph-name="eight" horiz-adv-x="565" d="M35 157Q35 227 80 274T198 345Q138 379 101 425T64 533Q64 572 79 604T124 661T194 698T288 712Q336 712 375 700T443 667T486 616T501 550Q501 490 461 446T360 383Q403 360 434 337T487 289T518
236T529 175Q529 136 513 102T465 43T387 3T279 -12Q223 -12 178 1T101 36T52 90T35 157ZM387 146Q387 180 375 204T342 247T294 283T236 318Q201 291 188 254T175 182Q175 158 181 134T200 92T235 61T287 49Q312 49 330 57T361 78T380 109T387 146ZM200 554Q200
506 233 470T320 406Q348 432 359 463T371 536Q371 594 348 622T286 651Q241 651 221 623T200 554Z" />
<glyph unicode="9" glyph-name="nine" horiz-adv-x="565" d="M38 482Q38 533 56 575T106 647T184 695T284 712Q342 712 388 693T466 638T514 553T531 441Q531 348 503 270T424 132T302 35T144 -12L121 31Q236 61 298 139T376 331Q357 306 326 290T246 274Q203
274 166 287T100 326T55 392T38 482ZM188 488Q188 459 194 433T214 387T246 356T291 344Q321 344 344 355T379 387Q381 400 382 419T383 456Q383 495 378 530T360 592T329 635T282 651Q232 651 210 611T188 488Z" />
<glyph unicode=":" glyph-name="colon" horiz-adv-x="343" d="M110 429Q110 465 133 487T194 509Q232 509 256 487T280 429Q280 393 256 372T194 350Q156 350 133 371T110 429ZM110 71Q110 107 133 129T194 151Q232 151 256 129T280 71Q280 35 256 14T194 -8Q156
-8 133 13T110 71Z" />
<glyph unicode=";" glyph-name="semicolon" horiz-adv-x="348" d="M112 429Q112 465 135 487T196 509Q234 509 258 487T282 429Q282 393 258 372T196 350Q158 350 135 371T112 429ZM102 -131Q122 -125 138 -113T165 -86T183 -54T188 -21Q174 -3 155 8T113 26Q108
47 111 68T125 107T148 137T177 153Q198 152 218 144T254 120T279 80T289 24Q289 -7 277 -39T243 -98T191 -146T125 -175L102 -131Z" />
<glyph unicode="&lt;" glyph-name="less" horiz-adv-x="565" d="M65 324V355L450 590L486 525L273 397L191 363L272 332L505 195L449 103L65 324Z" />
<glyph unicode="=" glyph-name="equal" horiz-adv-x="565" d="M57 469H507V389H57V469ZM57 299H507V219H57V299Z" />
<glyph unicode="&gt;" glyph-name="greater" horiz-adv-x="565" d="M513 369V338L128 103L92 168L305 296L387 330L306 361L73 497L129 590L513 369Z" />
<glyph unicode="?" glyph-name="question" horiz-adv-x="486" d="M135 501H101Q95 514 88 533T75 574T63 618T56 661Q94 684 142 698T266 712Q311 712 346 700T407 666T446 614T460 549Q460 504 443 472T401 416T347 371T292 327T249 274T232 203H199Q185 249
188 282T205 343T237 392T273 437T303 486T316 546Q316 565 312 583T297 616T270 638T229 647Q208 647 192 643T168 633L135 501ZM142 71Q142 107 165 129T226 151Q264 151 288 129T312 71Q312 35 288 14T226 -8Q188 -8 165 13T142 71Z" />
<glyph unicode="@" glyph-name="at" horiz-adv-x="1064" d="M647 465Q671 476 704 481T772 485L723 207Q711 143 712 112T742 80Q765 80 794 95T850 140T894 217T912 326Q912 402 885 462T809 563T694 625T550 647Q463 647 391 617T266 532T185 404T156 242Q156
153 185 87T267 -25T390 -92T546 -115Q575 -115 612 -108T679 -87L695 -144Q660 -164 618 -172T525 -180Q436 -180 356 -154T214 -76T117 54T81 236Q81 345 118 433T220 583T371 678T555 712Q650 712 729 686T866 610T955 489T987 326Q987 256 962 199T895 100T802
36T697 13Q667 13 645 20T609 46T591 93T592 165H588Q579 138 562 111T522 62T472 27T417 13Q349 13 315 57T280 169Q280 228 299 286T353 389T436 463T541 492Q576 492 599 486T647 465ZM627 415Q616 423 604 427T575 431Q541 431 512 405T462 339T429 253T417
166Q417 132 429 113T470 93Q487 93 504 107T538 143T570 194T599 251L627 415Z" />
<glyph unicode="A" glyph-name="A" horiz-adv-x="729" d="M247 0H0V38Q16 48 34 55T71 67L329 712H403L654 67Q674 63 694 56T729 38V0H416V38Q435 47 457 55T499 67L441 226H219L160 67Q206 61 247 38V0ZM243 291H420L355 482L336 568H334L312 480L243 291Z" />
<glyph unicode="B" glyph-name="B" horiz-adv-x="649" d="M20 0V38Q39 49 60 57T102 67V633Q82 637 60 644T20 662V700H181Q219 700 253 703T331 706Q379 706 424 699T504 674T560 624T581 540Q581 508 570 481T538 432T490 397T430 377V373Q462 369 494 358T553
326T595 274T612 199Q612 145 588 106T524 42T431 6T323 -6Q302 -6 277 -5T227 -3T179 -1T139 0H20ZM322 59Q385 59 421 96T457 196Q457 234 445 258T412 297T362 317T299 323H246V66Q260 63 275 61T322 59ZM278 388Q295 388 312 389T344 393Q383 409 407 442T431
519Q431 582 398 611T313 641Q291 641 275 640T246 637V388H278Z" />
<glyph unicode="C" glyph-name="C" horiz-adv-x="652" d="M540 210H581Q585 194 588 172T594 124T598 73T599 28Q564 6 512 -3T404 -12Q321 -12 254 8T139 73T65 186T39 351Q39 446 67 514T144 627T255 691T389 712Q455 712 508 703T596 677Q596 661 595 636T590
584T582 530T573 485H531L476 636Q467 641 447 644T406 647Q365 647 329 631T265 578T221 486T205 350Q205 207 262 130T417 53Q445 53 464 57T491 70L540 210Z" />
<glyph unicode="D" glyph-name="D" horiz-adv-x="736" d="M20 0V38Q37 48 58 55T102 67V633Q79 638 58 645T20 662V700H136Q153 700 178 701T230 703T282 706T326 708Q413 708 481 685T597 618T670 509T696 359Q696 276 672 208T600 92T479 18T306 -9Q293 -9 271
-8T224 -5T174 -2T130 0H20ZM313 643Q295 643 277 642T246 639V60Q250 59 260 59T280 58T301 57T316 56Q374 56 414 80T481 145T519 241T531 358Q531 413 519 464T480 555T413 619T313 643Z" />
<glyph unicode="E" glyph-name="E" horiz-adv-x="604" d="M546 700Q544 655 539 607T526 517H485L439 635H252V390H374L418 467H450Q455 418 455 358T450 246H418L374 325H252V65H447L500 192H541Q545 173 549 149T555 100T559 48T561 0H20V38Q37 47 58 55T102
67V633Q82 637 60 644T20 662V700H546Z" />
<glyph unicode="F" glyph-name="F" horiz-adv-x="575" d="M242 67Q288 61 329 38V0H20V38Q36 47 54 54T92 67V633Q69 638 52 646T20 662V700H543Q543 680 541 657T537 609T531 561T523 517H482L436 635H242V372H379L424 449H454Q458 423 459 394T461 336Q460 306
459 278T454 228H424L379 307H242V67Z" />
<glyph unicode="G" glyph-name="G" horiz-adv-x="709" d="M636 44Q616 34 587 24T526 6T462 -7T405 -12Q319 -12 252 10T137 78T64 192T39 350Q39 448 69 516T150 628T265 692T396 712Q462 712 520 703T612 677Q612 662 611 639T606 588T599 534T588 485H547L491
637Q480 642 458 644T414 647Q373 647 335 631T268 580T222 488T205 350Q205 284 220 230T264 136T331 75T417 53Q432 53 448 55T478 62T502 71T517 80V268Q491 270 468 278T425 297V335H698V297Q689 288 674 281T636 268V44Z" />
<glyph unicode="H" glyph-name="H" horiz-adv-x="769" d="M323 0H20V38Q37 47 59 55T102 67V633Q78 637 56 645T20 662V700H323V662Q308 652 290 644T252 633V391H517V633Q495 637 478 645T446 662V700H749V662Q732 651 710 644T667 633V67Q690 63 711 55T749
38V0H446V38Q461 47 479 55T517 67V326H252V67Q272 63 289 56T323 38V0Z" />
<glyph unicode="I" glyph-name="I" horiz-adv-x="372" d="M342 0H30V38Q70 60 111 67V633Q91 636 69 644T30 662V700H342V662Q324 651 303 644T261 633V67Q281 63 302 56T342 38V0Z" />
<glyph unicode="J" glyph-name="J" horiz-adv-x="365" d="M27 700H335V662Q319 652 299 644T259 633V121Q259 39 235 -13T177 -96T108 -141T51 -160L32 -134Q47 -122 61 -104T85 -56T102 14T109 115V633Q87 638 66 644T27 662V700Z" />
<glyph unicode="K" glyph-name="K" horiz-adv-x="710" d="M399 700H667V662Q650 651 628 644T588 633L398 392Q421 360 452 320T518 236T590 148T662 63L710 34V0H536L496 28Q472 58 446 94T393 170T342 250T295 328H252V67Q274 63 292 55T323 38V0H20V38Q40 48
61 55T102 67V633Q79 636 58 644T20 662V700H323V662Q310 654 292 646T252 633V379L311 393L472 633Q452 637 433 645T399 662V700Z" />
<glyph unicode="L" glyph-name="L" horiz-adv-x="583" d="M20 700H348V662Q327 651 302 644T252 633V65H445L512 244H553Q557 221 560 190T566 125T569 58T569 0H20V38Q43 50 63 57T102 67V633Q53 641 20 662V700Z" />
<glyph unicode="M" glyph-name="M" horiz-adv-x="930" d="M909 0H610V38Q630 48 649 55T690 67V485L695 602H687L654 495L461 0H415L223 491L187 608H178L179 481V71Q198 67 221 58T264 38V0H20V38Q36 46 59 57T104 72V633Q84 637 62 644T22 662V700H293L446 293L475
197H476L506 295L662 700H910V662Q893 652 874 645T834 633V66Q855 62 874 54T909 38V0Z" />
<glyph unicode="N" glyph-name="N" horiz-adv-x="758" d="M490 700H738V662Q719 647 696 636T653 618V-12H568L215 498L175 575H172L181 495V78Q201 73 225 62T267 38V0H20V38Q38 50 59 60T104 78V624Q84 632 64 642T28 663V700H244L531 284L577 198H581L576 284V618Q552
626 530 637T490 662V700Z" />
<glyph unicode="O" glyph-name="O" horiz-adv-x="754" d="M39 350Q39 428 61 494T126 609T232 685T377 712Q459 712 522 685T627 610T692 495T714 350Q714 272 692 206T628 91T522 15T377 -12Q295 -12 232 15T126 90T61 205T39 350ZM209 350Q209 286 219 232T250
138T305 76T386 53Q429 53 459 75T508 137T535 231T544 350Q544 414 535 468T505 562T451 624T369 647Q323 647 292 625T243 563T217 469T209 350Z" />
<glyph unicode="P" glyph-name="P" horiz-adv-x="640" d="M252 67Q279 63 305 56T353 38V0H20V38Q39 49 60 56T102 67V633Q79 637 58 644T20 662V700H146Q186 700 237 704T332 708Q385 708 435 698T525 662T589 596T613 492Q613 433 590 390T527 319T437 278T332
264Q327 264 316 264T293 264T269 265T252 267V67ZM306 643Q286 643 275 642T252 637V333Q261 330 279 330T308 329Q335 329 360 338T404 366T436 415T448 487Q448 567 409 605T306 643Z" />
<glyph unicode="Q" glyph-name="Q" horiz-adv-x="754" d="M774 -112Q756 -131 736 -148T693 -180T645 -202T593 -210Q547 -210 501 -194T404 -156T298 -114T177 -86L202 -42Q250 -33 296 -37T388 -52T479 -76T571 -97T665 -105T764 -87L774 -112ZM39 350Q39 428
61 494T126 609T232 685T377 712Q459 712 522 685T627 610T692 495T714 350Q714 272 692 206T628 91T522 15T377 -12Q295 -12 232 15T126 90T61 205T39 350ZM209 350Q209 286 219 232T250 138T305 76T386 53Q429 53 459 75T508 137T535 231T544 350Q544 414 535
468T505 562T451 624T369 647Q323 647 292 625T243 563T217 469T209 350Z" />
<glyph unicode="R" glyph-name="R" horiz-adv-x="697" d="M252 67Q275 62 293 54T328 38V0H20V38Q42 50 62 56T102 67V633Q52 644 20 662V700H126Q146 700 171 701T225 703T282 706T338 708Q393 708 439 696T519 658T571 596T590 508Q590 436 555 390T459 321Q499
258 544 193T639 66L687 34V0H520L477 33Q431 88 396 160T333 303H252V67ZM302 643Q271 643 252 637V358H311Q362 358 398 394T434 503Q434 540 424 566T396 610T354 635T302 643Z" />
<glyph unicode="S" glyph-name="S" horiz-adv-x="558" d="M157 83Q168 72 188 63T241 53Q296 53 332 81T369 161Q369 198 346 223T286 269T209 310T132 359T73 425T49 521Q49 570 67 606T116 665T191 700T284 712Q345 712 397 704T492 677Q491 657 489 631T482
580T474 532T465 494H424L378 631Q366 637 343 642T294 647Q252 647 223 625T194 561Q194 523 218 497T278 448T356 405T435 355T495 290T519 197Q519 97 452 43T253 -12Q221 -12 189 -8T127 3T76 18T42 35Q43 58 47 84T55 137T65 188T75 230H116L157 83Z" />
<glyph unicode="T" glyph-name="T" horiz-adv-x="667" d="M505 0H161V38Q181 46 206 54T258 67V635H142L78 464H37Q33 484 29 515T22 579T17 644T15 700H652Q652 676 650 644T645 579T638 516T630 464H588L524 635H408V67Q434 62 459 55T505 38V0Z" />
<glyph unicode="U" glyph-name="U" horiz-adv-x="715" d="M7 700H315V662Q282 641 239 633V248Q239 199 250 166T282 113T332 83T399 74Q432 74 459 83T507 114T539 169T550 253V628Q527 633 503 642T462 662V700H710V662Q692 649 670 641T627 628V252Q627 124
560 58T369 -9Q235 -9 162 51T89 243V633Q69 636 47 643T7 662V700Z" />
<glyph unicode="V" glyph-name="V" horiz-adv-x="734" d="M564 633Q540 638 519 646T480 662V700H734V662Q722 654 703 646T662 633L432 0L333 -12L75 633Q55 638 35 645T0 662V700H333V662Q316 654 295 646T251 633L391 239L414 145H416L438 241L564 633Z" />
<glyph unicode="W" glyph-name="W" horiz-adv-x="1033" d="M865 633Q825 639 781 662V700H1033V662Q1016 651 997 644T960 633L783 0L679 -12L524 472L373 0L268 -12L73 633Q52 637 34 644T0 662V700H324V662Q307 653 286 646T241 633L334 280L355 150H357L392
285L525 700H584L726 290L760 160H762L785 292L865 633Z" />
<glyph unicode="X" glyph-name="X" horiz-adv-x="728" d="M435 700H683V662Q668 654 652 646T615 633L437 372L644 67Q667 62 685 55T721 38V0H397V38Q413 47 430 54T468 67L326 287L194 66Q215 63 233 56T268 38V0H12V38Q45 58 80 67L281 352L93 633Q74 638 57
646T24 662V700H341V662Q329 655 311 648T269 633L391 432L511 633Q491 637 471 645T435 662V700Z" />
<glyph unicode="Y" glyph-name="Y" horiz-adv-x="698" d="M453 700H698V662Q683 653 665 645T627 633L433 293V67Q453 65 472 57T509 38V0H201V38Q218 47 239 55T283 67V292L81 633Q58 637 38 645T0 662V700H328V662Q314 654 296 646T254 633L397 365L533 633Q510
638 489 646T453 662V700Z" />
<glyph unicode="Z" glyph-name="Z" horiz-adv-x="634" d="M537 211H579Q583 190 586 164T593 109T597 52T599 0H35V65L423 635H175L116 492H74Q69 514 65 542T58 598T54 653T53 700H587V635L201 65H475L537 211Z" />
<glyph unicode="[" glyph-name="bracketleft" horiz-adv-x="324" d="M72 700H306V645H202V-175H306V-230H72V700Z" />
<glyph unicode="\" glyph-name="backslash" horiz-adv-x="382" d="M416 -104L359 -134L-56 686L2 715L416 -104Z" />
<glyph unicode="]" glyph-name="bracketright" horiz-adv-x="324" d="M252 -230H18V-175H122V645H18V700H252V-230Z" />
<glyph unicode="^" glyph-name="asciicircum" horiz-adv-x="498" d="M229 711H275L445 434H325L246 569L228 622L203 568L113 434H43L229 711Z" />
<glyph unicode="_" glyph-name="underscore" horiz-adv-x="410" d="M0 -116H410V-196H0V-116Z" />
<glyph unicode="`" glyph-name="grave" horiz-adv-x="351" d="M291 589L246 567L60 712V741Q66 747 86 752T128 761T171 764T198 763L291 589Z" />
<glyph unicode="a" glyph-name="a" horiz-adv-x="557" d="M470 145Q470 123 470 107T473 73L542 63V28Q530 22 510 16T467 5T422 -4T383 -10H349Q339 13 337 36T334 92H329Q324 72 312 54T282 21T238 -3T182 -12Q149 -12 121 -2T72 26T39 69T27 127Q27 172 44
201T97 248T191 276T331 289Q339 375 324 415T259 455Q228 455 202 445L155 325H111Q103 337 96 352T82 385T71 421T64 456Q102 482 162 497T289 512Q346 512 382 500T438 466T467 415T475 353Q475 293 473 245T470 145ZM245 68Q266 68 281 76T306 95T322 119T331
142V242Q284 241 254 236T207 220T184 191T177 148Q177 110 195 89T245 68Z" />
<glyph unicode="b" glyph-name="b" horiz-adv-x="588" d="M67 669L-9 677V716Q6 722 30 728T81 738T133 746T177 752H211V406H213Q233 456 274 484T371 512Q459 512 508 451T557 266Q557 129 485 60T272 -9Q247 -9 216 -6T156 3T103 15T67 29V669ZM306 432Q268
432 245 405T211 335V70Q225 60 245 54T292 48Q349 48 375 99T402 259Q402 338 381 385T306 432Z" />
<glyph unicode="c" glyph-name="c" horiz-adv-x="484" d="M456 81Q449 61 433 45T395 15T344 -5T284 -12Q218 -12 171 6T92 59T46 142T31 250Q31 377 100 444T298 512Q347 512 388 502T456 477Q454 460 451 440T443 399T432 359T420 326H371L329 445Q322 450 314
452T290 455Q264 455 245 446T213 413T193 352T186 258Q186 217 195 183T222 123T269 83T335 68Q370 68 396 78T440 102L456 81Z" />
<glyph unicode="d" glyph-name="d" horiz-adv-x="599" d="M372 99Q367 77 354 57T323 22T282 -3T233 -12Q134 -12 83 50T31 242Q31 308 49 357T99 441T178 492T280 509Q298 509 310 508T333 506T353 501T375 493V669L299 677V716Q313 722 337 727T389 736T442
745T485 752H519V71L585 63V28Q571 21 549 15T503 4T457 -4T419 -10H385L376 99H372ZM281 68Q316 68 340 90T375 165V434Q362 442 343 447T294 452Q236 452 211 400T186 247Q186 166 208 117T281 68Z" />
<glyph unicode="e" glyph-name="e" horiz-adv-x="537" d="M486 84Q478 67 461 50T418 19T359 -3T286 -12Q224 -12 176 6T96 59T48 142T31 250Q31 378 98 445T284 512Q335 512 379 498T453 452T494 368T493 241H186Q187 162 226 115T343 68Q376 68 411 78T467 104L486
84ZM280 455Q260 455 245 448T218 423T199 373T189 293H350Q357 371 341 413T280 455Z" />
<glyph unicode="f" glyph-name="f" horiz-adv-x="372" d="M321 752Q362 752 394 745T444 730Q441 697 431 662T413 604H379L335 699Q309 699 292 694T264 672T248 627T243 550V500H349V437H243V63Q295 57 339 39V0H33V39Q64 57 99 63V437H23V476Q58 498 99 509V544Q99
606 116 646T164 710T234 743T321 752Z" />
<glyph unicode="g" glyph-name="g" horiz-adv-x="564" d="M264 512Q329 512 372 499T437 465Q484 516 545 536Q552 531 559 522T571 501T579 479T582 461L569 437H464Q475 423 484 401T494 347Q494 314 480 285T438 234T366 198T264 185Q247 185 234 185T210 188Q206
182 202 174T197 157Q197 140 221 130T282 112T361 94T441 68T503 25T529 -44Q530 -84 509 -115T452 -167T366 -200T260 -212Q194 -212 148 -202T72 -173T30 -132T16 -84Q16 -56 27 -36T58 -1T104 24T163 42Q148 46 134 52T109 66T91 86T84 113Q84 126 92 138T113
161T141 180T171 195Q108 209 71 249T34 353Q34 428 96 470T264 512ZM390 -76Q390 -49 374 -33T331 -6T273 12T208 30Q182 10 171 -10T160 -58Q160 -104 191 -129T280 -155Q336 -155 363 -132T390 -76ZM178 348Q178 296 195 269T264 242Q313 242 331 269T350 348Q350
402 331 428T264 455Q214 455 196 429T178 348Z" />
<glyph unicode="h" glyph-name="h" horiz-adv-x="640" d="M628 0H363V39Q375 46 388 52T418 63V265Q418 351 402 391T337 432Q297 432 269 405T229 341V63Q245 59 257 54T284 39V0H19V39Q50 55 85 63V669L9 677V716Q24 722 47 728T97 738T149 746T195 752H229V399H230Q240
422 257 442T295 478T342 503T395 512Q435 512 466 503T519 469T551 405T562 302V63Q579 59 596 54T628 39V0Z" />
<glyph unicode="i" glyph-name="i" horiz-adv-x="332" d="M307 0H31V39Q46 47 62 52T97 63V429L31 437V476Q46 482 68 488T116 498T165 506T207 512H241V63Q261 58 277 53T307 39V0ZM80 664Q80 699 104 719T166 739Q204 739 228 719T252 664Q252 630 228 610T166
590Q128 590 104 610T80 664Z" />
<glyph unicode="j" glyph-name="j" horiz-adv-x="320" d="M97 429L31 437V476Q46 483 68 489T115 499T164 507T207 512H241V43Q241 -4 230 -41T200 -105T159 -151T115 -182T75 -202T47 -212L27 -182Q39 -176 51 -163T73 -125T90 -65T97 24V429ZM80 664Q80 699
104 719T166 739Q204 739 228 719T252 664Q252 630 228 610T166 590Q128 590 104 610T80 664Z" />
<glyph unicode="k" glyph-name="k" horiz-adv-x="583" d="M322 500H556V461Q537 453 521 447T484 437Q469 417 452 398T417 360T383 326T354 296Q369 276 389 248T432 189T480 125T532 63L583 39V0H414L387 24Q364 55 347 82T315 134T288 182T262 229L229 239V63Q246
60 260 54T290 39V0H19V39Q52 55 85 63V669L9 677V716Q23 722 47 728T98 738T151 746T195 752H229V283H255Q288 318 316 360T367 437Q354 441 344 447T322 461V500Z" />
<glyph unicode="l" glyph-name="l" horiz-adv-x="332" d="M307 0H31V39Q64 55 97 63V669L21 677V716Q34 722 57 728T106 738T159 746T207 752H241V63Q274 55 307 39V0Z" />
<glyph unicode="m" glyph-name="m" horiz-adv-x="924" d="M594 0H344V39Q354 45 366 51T394 63V262Q394 308 392 340T381 392T359 422T323 432Q291 432 268 408T233 343V63Q260 55 283 39V0H23V39Q37 46 54 52T89 63V429L23 437V476Q39 483 62 489T111 499T159
507T199 512H233V399H234Q250 446 290 479T388 512Q412 512 435 507T477 489T511 451T531 389Q549 444 591 478T693 512Q730 512 758 503T806 469T836 404T846 300V63Q880 57 912 39V0H652V39Q675 54 702 63V280Q702 358 688 395T625 432Q589 432 569 405T538 333V63Q555
58 568 52T594 39V0Z" />
<glyph unicode="n" glyph-name="n" horiz-adv-x="644" d="M632 0H367V39Q380 46 392 51T422 63V298Q422 361 404 396T340 432Q302 432 275 408T233 341V63Q249 59 261 54T288 39V0H23V39Q48 52 89 63V429L23 437V476Q36 482 57 487T102 498T152 506T199 512H233V409H234Q255
451 297 481T399 512Q438 512 469 503T521 469T554 405T566 302V63Q606 56 632 39V0Z" />
<glyph unicode="o" glyph-name="o" horiz-adv-x="594" d="M31 250Q31 311 49 359T102 442T186 494T297 512Q367 512 417 493T500 439T548 356T563 250Q563 189 545 141T493 58T409 6T297 -12Q229 -12 179 7T96 61T47 144T31 250ZM186 250Q186 205 191 168T211
104T249 64T311 49Q333 49 351 59T382 93T401 155T408 250Q408 296 403 333T384 396T347 436T289 451Q263 451 244 441T212 407T193 345T186 250Z" />
<glyph unicode="p" glyph-name="p" horiz-adv-x="609" d="M297 -200H21V-161Q55 -145 87 -137V429L21 437V476Q37 483 60 489T109 499T157 507T197 512H231V400H232Q249 448 285 480T387 512Q431 512 466 498T526 453T564 375T578 261Q578 198 561 147T511 61T432
7T326 -12Q292 -12 273 -8T231 8V-137Q247 -139 263 -144T297 -161V-200ZM329 432Q295 432 269 408T231 334V68Q247 56 265 51T312 45Q369 45 396 100T423 261Q423 343 403 387T329 432Z" />
<glyph unicode="q" glyph-name="q" horiz-adv-x="589" d="M367 89Q360 69 347 51T316 19T275 -3T222 -12Q131 -12 81 50T31 237Q31 374 104 441T313 509Q341 509 372 506T431 499T481 489T515 478V-137Q548 -143 581 -161V-200H305V-161Q336 -145 371 -137V89H367ZM272
68Q347 68 371 164V438Q354 443 335 447T293 452Q235 452 211 406T186 249Q186 162 204 115T272 68Z" />
<glyph unicode="r" glyph-name="r" horiz-adv-x="431" d="M290 385Q278 379 262 365T233 319V63Q253 61 273 56T313 39V0H23V39Q41 49 57 54T89 63V429L23 437V476Q39 483 62 489T111 499T159 507T199 512H233V379H237Q245 401 260 425T297 469T343 501T395 512Q406
498 414 473T427 424V385H290Z" />
<glyph unicode="s" glyph-name="s" horiz-adv-x="452" d="M288 109Q288 135 270 154T224 189T164 221T104 258T58 309T39 380Q39 410 53 434T91 476T148 502T221 512Q275 512 321 504T403 480Q399 448 387 412T364 345H330L288 447Q276 452 263 453T234 455Q204
455 189 438T173 398Q173 373 191 355T237 320T297 288T357 252T403 203T422 136Q422 67 366 28T216 -12Q168 -12 117 -2T29 26Q31 62 46 99T78 165H112L161 56Q172 48 185 47T211 45Q240 45 264 62T288 109Z" />
<glyph unicode="t" glyph-name="t" horiz-adv-x="399" d="M8 476Q46 500 88 510V591Q94 597 108 602T139 612T172 621T198 627H232V500H364V437H232V178Q232 116 247 92T299 68Q317 68 339 70T381 80L388 47Q379 38 362 28T322 9T273 -6T217 -12Q152 -12 120 22T88
132V437H8V476Z" />
<glyph unicode="u" glyph-name="u" horiz-adv-x="622" d="M71 198Q71 261 74 315T77 429L11 437V476Q27 482 50 488T99 498T147 506T187 512H221Q221 437 218 365T215 222Q215 140 231 104T293 68Q324 68 350 91T394 167V429L329 437V476Q344 482 366 488T413
498T462 506T504 512H538V71L604 63V28Q590 22 569 16T525 5T480 -4T439 -10H405L398 109H394Q389 88 376 67T343 28T294 -1T232 -12Q194 -12 165 -3T114 31T82 95T71 198Z" />
<glyph unicode="v" glyph-name="v" horiz-adv-x="539" d="M243 -12L43 437Q14 447 -10 461V500H253V462Q240 455 227 449T196 437L289 181L308 114H310L326 182L411 437Q395 441 382 447T356 461V500H549V461Q539 454 525 448T492 437L317 0L243 -12Z" />
<glyph unicode="w" glyph-name="w" horiz-adv-x="784" d="M200 -12L43 437Q29 442 16 447T-10 461V500H243V462Q229 454 215 448T186 437L255 181L268 104H270L288 184L394 494L443 500L557 183L578 104H580L596 182L656 437Q645 439 631 445T601 461V500H794V461Q773
447 737 437L598 0L504 -12L418 235L399 318H396L373 235L293 0L200 -12Z" />
<glyph unicode="x" glyph-name="x" horiz-adv-x="560" d="M343 268L501 63Q527 55 550 39V0H295V38Q306 46 317 52T341 63L246 199L154 63Q168 58 178 52T199 39V0H10V39Q24 47 35 53T62 63L210 247L61 437Q47 442 36 447T16 461V500H267V462Q255 454 246 448T222
437L309 313L392 437Q375 442 365 448T347 461V500H532V461Q522 454 510 448T480 437L343 268Z" />
<glyph unicode="y" glyph-name="y" horiz-adv-x="528" d="M38 437Q23 441 11 447T-15 461V500H248V462Q227 448 191 437L292 186L309 122H311L327 187L405 437Q375 443 350 461V500H543V461Q522 447 486 437L323 0Q299 -64 275 -104T227 -169T179 -202T131 -215Q121
-206 113 -193T99 -164T89 -132T84 -102L97 -78H219Q228 -64 234 -48T250 0L38 437Z" />
<glyph unicode="z" glyph-name="z" horiz-adv-x="516" d="M453 185Q464 144 472 94T478 0H32V39L317 443H151L107 325H73Q62 368 55 416T48 500H478V461L192 57H365L419 185H453Z" />
<glyph unicode="{" glyph-name="braceleft" horiz-adv-x="354" d="M123 102Q123 153 102 182T43 211V259Q81 259 102 289T123 364V594Q123 642 147 671T219 700H340V645H305Q278 645 266 631T253 585V365Q253 332 243 309T216 272T180 250T143 240V234Q160 232
179 224T215 200T242 161T253 105V-115Q253 -146 265 -160T306 -175H340V-230H219Q174 -230 149 -204T123 -125V102Z" />
<glyph unicode="|" glyph-name="bar" horiz-adv-x="235" d="M83 700H153V-130H83V700Z" />
<glyph unicode="}" glyph-name="braceright" horiz-adv-x="354" d="M244 369Q244 318 265 289T324 260V212Q286 212 265 182T244 107V-124Q244 -172 220 -201T148 -230H27V-175H62Q89 -175 101 -161T114 -115V106Q114 139 123 162T146 199T178 221T214 231V237Q197
239 179 247T147 271T123 310T114 366V585Q114 616 102 630T61 645H27V700H149Q194 700 219 674T244 595V369Z" />
<glyph unicode="~" glyph-name="asciitilde" horiz-adv-x="530" d="M46 312Q73 370 113 400T190 431Q215 431 239 421T286 397T332 374T381 363Q399 363 418 370T458 397L481 367Q458 319 425 296T358 272Q332 272 308 282T259 306T211 329T163 340Q141 340 119
328T73 285L46 312Z" />
<glyph unicode="&#xa0;" glyph-name="uni00A0" horiz-adv-x="270" />
<glyph unicode="&#xa1;" glyph-name="exclamdown" horiz-adv-x="344" d="M172 286L222 92V-186Q211 -192 192 -194T150 -197T108 -195T78 -186V92L128 286H172ZM233 433Q233 396 210 375T149 353Q111 353 87 374T63 433Q63 469 87 490T149 512Q187 512 210 491T233 433Z" />
<glyph unicode="&#xa2;" glyph-name="cent" horiz-adv-x="565" d="M521 81Q508 46 469 21T376 -9V-170H299V-9Q178 4 117 72T56 250Q56 362 118 427T299 508V660H376V511Q421 509 458 500T521 477Q519 460 516 440T508 399T497 359T485 326H451L415 445Q410 447
405 449T385 453L369 454V70Q377 68 384 68T400 68Q435 68 461 78T505 102L521 81ZM211 258Q211 199 233 154T306 85V446Q265 431 238 387T211 258Z" />
<glyph unicode="&#xa3;" glyph-name="sterling" horiz-adv-x="565" d="M40 375H117Q97 406 81 443T65 534Q65 576 82 609T129 665T200 700T292 712Q322 712 354 709T414 700T467 688T505 674Q504 658 501 634T493 585T482 535T471 494H437L397 631Q361 647 308
647Q270 647 246 629T216 574Q212 555 215 532Q218 510 224 490T238 451T255 413T272 375H397V314H289Q293 283 286 259T266 212Q262 192 252 173T223 140L190 116V112L241 118H418L467 230H501Q504 207 507 175T514 110T519 48T521 0H43V54Q101 79 132 113T168
200Q170 211 170 221T170 243Q168 263 164 280T153 314H40V375Z" />
<glyph unicode="&#xa4;" glyph-name="currency" horiz-adv-x="565" d="M36 178L111 252L151 266Q138 283 133 301T127 346Q127 392 151 425L111 440L37 514L115 592L188 518L204 478Q220 489 238 495T282 501Q334 500 362 479L378 518L450 590L528 513L454 440L416
426Q426 409 431 390T437 345Q437 300 416 266L454 252L527 178L449 100L376 173L362 212Q347 203 327 197T283 191Q257 192 238 197T202 212L188 174L114 100L36 178ZM282 264Q318 264 342 287T367 346Q367 382 343 405T282 429Q246 430 222 406T197 346Q197 310
221 287T282 264Z" />
<glyph unicode="&#xa5;" glyph-name="yen" horiz-adv-x="565" d="M379 700H619V662Q605 653 584 645T543 633L392 342H509V277H367V220H509V155H367V67Q386 65 406 57T443 38V0H135V38Q152 47 173 55T217 67V155H74V220H217V277H74V342H189L26 633Q3 637 -17 645T-55
662V700H273V662Q260 654 242 646T199 633L331 351L459 633Q436 638 416 646T379 662V700Z" />
<glyph unicode="&#xa6;" glyph-name="brokenbar" horiz-adv-x="235" d="M83 190H153V-130H83V190ZM153 380H83V700H153V380Z" />
<glyph unicode="&#xa7;" glyph-name="section" horiz-adv-x="566" d="M338 39Q338 66 317 84T265 115T196 143T128 176T75 224T54 298Q54 348 92 383T189 441Q168 452 150 465T119 494T97 532T89 580Q89 640 140 676T276 712Q330 712 373 704T453 685Q449 653
442 627T424 570H390L338 647Q326 652 316 653T289 655Q255 655 239 638T223 598Q223 571 244 553T298 519T367 488T437 452T490 403T512 333Q512 307 501 285T471 245T430 212T385 186Q421 166 446 139T472 68Q472 -2 417 -42T261 -82Q213 -82 165 -72T79 -44Q81
-8 91 16T118 70H152L211 -14Q222 -22 233 -23T256 -25Q288 -25 313 -8T338 39ZM378 301Q378 323 367 340T337 370T294 393T243 415Q221 399 205 376T188 328Q188 306 200 290T231 260T276 237T327 215Q347 232 362 255T378 301Z" />
<glyph unicode="&#xa8;" glyph-name="dieresis" horiz-adv-x="505" d="M60 659Q60 691 80 710T133 729Q165 729 185 710T206 659Q206 629 186 610T133 591Q100 591 80 610T60 659ZM299 659Q299 691 319 710T371 729Q404 729 424 710T445 659Q445 629 425 610T371
591Q339 591 319 610T299 659Z" />
<glyph unicode="&#xa9;" glyph-name="copyright" horiz-adv-x="819" d="M55 290Q55 373 84 438T163 549T276 618T409 642Q478 642 541 618T654 549T733 439T763 290Q763 207 734 142T655 31T542 -38T409 -62Q337 -62 273 -38T160 31T83 141T55 290ZM122 290Q122
223 145 169T207 78T298 20T409 -1Q470 -1 522 19T613 77T674 169T696 290Q696 359 672 413T609 504T517 561T409 581Q346 581 294 561T203 503T144 411T122 290ZM515 220H549Q551 212 553 200T557 172T559 142T559 115Q542 101 507 92T430 82Q381 82 341 95T271
135T225 201T208 291Q208 343 226 382T274 447T341 486T417 500Q465 500 500 492T556 470Q557 461 556 446T553 415T549 382T543 356H509L479 439Q472 444 460 444T436 445Q391 445 367 407T343 291Q343 258 348 230T366 181T397 149T443 137Q459 137 471 139T487
146L515 220Z" />
<glyph unicode="&#xaa;" glyph-name="ordfeminine" horiz-adv-x="460" d="M99 596Q89 607 80 629T70 672Q95 685 138 696T257 708Q296 708 321 702T361 682T382 650T388 607Q388 569 387 526T385 451L435 441V406Q426 401 411 397T378 388T344 382T316 378H290Q283
395 281 409T277 441H273Q268 432 259 421T236 399T201 383T154 376Q104 376 75 401T45 471Q45 502 61 521T105 552T169 567T245 572Q252 572 258 572T272 571Q273 577 273 587T273 603Q273 626 261 641T215 657Q204 657 191 655T163 648L135 596H99ZM205 431Q233
431 249 448T272 482V533Q263 534 255 534T238 535Q206 535 184 523T162 480Q162 461 173 446T205 431Z" />
<glyph unicode="&#xab;" glyph-name="guillemotleft" horiz-adv-x="505" d="M236 259L414 481L457 445L351 266L463 77L421 41L236 259ZM20 259L260 482L299 446L155 265L305 76L266 39L20 259Z" />
<glyph unicode="&#xac;" glyph-name="logicalnot" horiz-adv-x="552" d="M59 401H493V185H413V311H59V401Z" />
<glyph unicode="&#xad;" glyph-name="uni00AD" horiz-adv-x="414" d="M66 327H348V237H66V327Z" />
<glyph unicode="&#xae;" glyph-name="registered" horiz-adv-x="703" d="M69 451Q69 517 92 569T154 657T244 712T351 731Q408 731 459 712T549 657T610 569T633 451Q633 385 610 333T548 245T458 190T351 171Q294 171 243 190T153 245T92 333T69 451ZM131 451Q131
399 148 358T196 287T266 242T351 226Q398 226 438 241T508 286T554 356T571 451Q571 503 554 544T506 615T436 660T351 676Q303 676 263 660T194 615T148 545T131 451ZM320 351Q333 350 340 348T354 342V309H216V342Q233 348 251 351V566Q240 567 232 569T216
577V608H268Q286 608 311 610T352 612Q406 612 440 593T474 528Q474 497 455 478T408 449Q417 434 424 422T440 399T458 376T483 351L506 339V309H442L414 320Q389 350 377 380T353 439H320V351ZM347 571Q336 571 331 571T320 568V477H349Q373 477 386 489T398
528Q397 551 384 561T347 571Z" />
<glyph unicode="&#xaf;" glyph-name="overscore" horiz-adv-x="414" d="M60 619V689H354V619H60Z" />
<glyph unicode="&#xb0;" glyph-name="degree" horiz-adv-x="413" d="M69 571Q69 602 80 628T111 672T157 701T213 712Q242 712 268 703T314 677T345 633T357 571Q357 538 346 512T315 468T269 440T213 430Q184 430 158 439T112 467T81 512T69 571ZM138 571Q138
533 161 512T213 491Q245 491 266 510T288 571Q288 610 267 630T213 651Q180 651 159 630T138 571Z" />
<glyph unicode="&#xb1;" glyph-name="plusminus" horiz-adv-x="565" d="M57 504H242V700H322V504H507V424H322V292H242V424H57V504ZM57 244H507V164H57V244Z" />
<glyph unicode="&#xb2;" glyph-name="twosuperior" horiz-adv-x="440" d="M114 621H87Q81 633 73 653T59 695T47 736T41 765Q73 783 119 798T221 813Q304 813 341 781T379 697Q379 664 363 632T319 571T250 516T162 466V460L193 467H312L356 534H387Q390 517 393
495T398 452T400 414T401 386H44V437Q85 460 123 488T192 548T240 611T259 675Q259 705 245 721T195 738Q165 738 143 726L114 621Z" />
<glyph unicode="&#xb3;" glyph-name="threesuperior" horiz-adv-x="440" d="M207 437Q245 437 262 459T280 508Q280 539 261 556T199 574H161V609L238 695L282 737V739L220 735H149L109 652H78Q72 665 67 686T59 729T53 772T50 804H384V759L282 658L245 627V626L276
630Q300 630 322 623T361 601T389 564T400 513Q400 448 351 413T200 377Q180 377 157 380T112 390T71 405T39 423L73 529H100Q105 524 111 514T124 493T137 469T149 447Q158 444 172 441T207 437Z" />
<glyph unicode="&#xb4;" glyph-name="acute" horiz-adv-x="351" d="M168 763Q176 765 194 765T233 761T269 753T291 741V717L100 562L60 584L168 763Z" />
<glyph unicode="&#xb5;" glyph-name="mu" horiz-adv-x="622" d="M150 13L199 -161V-200Q163 -208 132 -208T71 -200V429L11 437V476Q27 482 50 488T99 498T147 506T187 512H221Q221 437 218 365T215 222Q215 140 231 104T293 68Q324 68 351 91T395 167V429L329
437V476Q344 482 366 488T414 498T463 506T505 512H539V71L605 63V28Q591 22 570 16T526 5T480 -4T439 -10H405L398 109H394Q389 88 377 67T344 28T298 -1T242 -12Q214 -12 192 -5T155 13H150Z" />
<glyph unicode="&#xb6;" glyph-name="paragraph" horiz-adv-x="547" d="M411 94Q411 27 401 -16T372 -86T324 -126T258 -148Q238 -177 209 -191T148 -212L132 -179Q154 -170 173 -157T207 -121T229 -63T238 24V310Q206 310 175 320T118 352T76 411T60 500Q60 542
72 578T109 642T172 684T261 700H487V657Q470 649 452 643T411 633V94ZM278 -111Q319 -98 333 -47T347 94V638H303V24Q303 -16 298 -50T278 -111Z" />
<glyph unicode="&#xb7;" glyph-name="middot" horiz-adv-x="296" d="M63 321Q63 357 86 379T147 401Q185 401 209 379T233 321Q233 285 209 264T147 242Q109 242 86 263T63 321Z" />
<glyph unicode="&#xb8;" glyph-name="cedilla" horiz-adv-x="318" d="M134 -68Q194 -71 225 -89T258 -144Q258 -173 241 -194T196 -229T133 -250T63 -257V-218Q133 -207 133 -161Q132 -138 114 -128T60 -114L101 1H160L134 -68Z" />
<glyph unicode="&#xb9;" glyph-name="onesuperior" horiz-adv-x="440" d="M385 386H72V416Q99 430 123 440T173 455V670L177 715Q153 708 121 708T65 709V751Q111 757 160 775T245 813H285V455Q340 442 385 416V386Z" />
<glyph unicode="&#xba;" glyph-name="ordmasculine" horiz-adv-x="458" d="M37 542Q37 581 51 612T90 665T151 700T229 712Q272 712 307 702T368 670T407 617T421 542Q421 503 407 472T368 418T308 384T229 372Q186 372 151 382T91 414T51 467T37 542ZM157 542Q157
423 229 423Q264 423 282 449T301 542Q301 608 283 634T229 661Q192 661 175 635T157 542Z" />
<glyph unicode="&#xbb;" glyph-name="guillemotright" horiz-adv-x="505" d="M87 41L45 77L154 259L45 445L87 481L269 261L87 41ZM242 40L203 77L350 259L203 446L242 482L485 261L242 40Z" />
<glyph unicode="&#xbc;" glyph-name="onequarter" horiz-adv-x="958" d="M371 282H58V312Q85 326 109 336T159 351V566L163 611Q139 604 107 604T51 605V647Q97 653 146 671T231 709H271V351Q326 338 371 312V282ZM877 0H633V30Q648 38 667 46T706 59V113H475V150L749
427H818V173H903V113H818V59Q848 53 877 30V0ZM706 276L714 319H711L678 276L594 189L558 166L612 173H706V276ZM772 715L820 673L235 -13L188 30L772 715Z" />
<glyph unicode="&#xbd;" glyph-name="onehalf" horiz-adv-x="1031" d="M371 282H58V312Q85 326 109 336T159 351V566L163 611Q139 604 107 604T51 605V647Q97 653 146 671T231 709H271V351Q326 338 371 312V282ZM688 235H661Q655 247 647 267T633 309T621 350T615
379Q647 397 693 412T795 427Q878 427 915 395T953 311Q953 278 937 246T893 185T824 130T736 80V74L767 81H886L930 148H961Q964 131 967 109T972 66T974 28T975 0H618V51Q659 74 697 102T766 162T814 225T833 289Q833 319 819 335T769 352Q739 352 717 340L688
235ZM772 715L820 673L235 -13L188 30L772 715Z" />
<glyph unicode="&#xbe;" glyph-name="threequarters" horiz-adv-x="980" d="M223 333Q261 333 278 355T296 404Q296 435 277 452T215 470H177V505L254 591L298 633V635L236 631H165L125 548H94Q88 561 83 582T75 625T69 668T66 700H400V655L298 554L261 523V522L292
526Q316 526 338 519T377 497T405 460T416 409Q416 344 367 309T216 273Q196 273 173 276T128 286T87 301T55 319L89 425H116Q121 420 127 410T140 389T153 365T165 343Q174 340 188 337T223 333ZM899 0H655V30Q670 38 689 46T728 59V113H497V150L771 427H840V173H925V113H840V59Q870
53 899 30V0ZM728 276L736 319H733L700 276L616 189L580 166L634 173H728V276ZM794 715L842 673L257 -13L210 30L794 715Z" />
<glyph unicode="&#xbf;" glyph-name="questiondown" horiz-adv-x="486" d="M351 3H385Q390 -10 397 -29T411 -70T423 -115T430 -157Q392 -180 344 -194T220 -208Q175 -208 140 -196T79 -162T40 -110T26 -45Q26 0 43 32T85 88T139 133T194 177T237 230T254 301H287Q301
255 298 221T281 161T250 112T214 67T184 18T171 -42Q171 -62 175 -80T190 -112T216 -134T257 -143Q301 -143 318 -129L351 3ZM344 433Q344 396 321 375T259 353Q221 353 197 374T173 433Q173 469 197 490T259 512Q297 512 320 491T344 433Z" />
<glyph unicode="&#xc0;" glyph-name="Agrave" horiz-adv-x="729" d="M247 0H0V38Q16 48 34 55T71 67L329 712H403L654 67Q674 63 694 56T729 38V0H416V38Q435 47 457 55T499 67L441 226H219L160 67Q206 61 247 38V0ZM243 291H420L355 482L336 568H334L312 480L243
291ZM416 764L382 745L146 841V861Q149 870 167 877T209 890T255 898T289 898L416 764Z" />
<glyph unicode="&#xc1;" glyph-name="Aacute" horiz-adv-x="729" d="M247 0H0V38Q16 48 34 55T71 67L329 712H403L654 67Q674 63 694 56T729 38V0H416V38Q435 47 457 55T499 67L441 226H219L160 67Q206 61 247 38V0ZM243 291H420L355 482L336 568H334L312 480L243
291ZM452 898Q468 899 488 896T528 888T563 875T585 861V841L338 745L310 769L452 898Z" />
<glyph unicode="&#xc2;" glyph-name="Acircumflex" horiz-adv-x="729" d="M247 0H0V38Q16 48 34 55T71 67L329 712H403L654 67Q674 63 694 56T729 38V0H416V38Q435 47 457 55T499 67L441 226H219L160 67Q206 61 247 38V0ZM243 291H420L355 482L336 568H334L312
480L243 291ZM240 743L212 771L339 888Q349 893 370 893T401 888L526 774L498 744L366 800L240 743Z" />
<glyph unicode="&#xc3;" glyph-name="Atilde" horiz-adv-x="729" d="M247 0H0V38Q16 48 34 55T71 67L329 712H403L654 67Q674 63 694 56T729 38V0H416V38Q435 47 457 55T499 67L441 226H219L160 67Q206 61 247 38V0ZM243 291H420L355 482L336 568H334L312 480L243
291ZM540 817Q508 785 480 769T416 752Q397 752 381 757T348 769T317 780T286 786Q272 786 256 781T223 761L195 808Q271 876 330 876Q348 876 364 871T396 860T426 849T457 844Q470 844 486 848T518 864L540 817Z" />
<glyph unicode="&#xc4;" glyph-name="Adieresis" horiz-adv-x="729" d="M247 0H0V38Q16 48 34 55T71 67L329 712H403L654 67Q674 63 694 56T729 38V0H416V38Q435 47 457 55T499 67L441 226H219L160 67Q206 61 247 38V0ZM243 291H420L355 482L336 568H334L312 480L243
291ZM163 793Q163 825 186 841T244 857Q279 857 302 841T325 793Q325 765 302 750T244 734Q209 734 186 749T163 793ZM408 793Q408 825 431 841T490 857Q525 857 548 841T571 793Q571 765 548 750T490 734Q455 734 432 749T408 793Z" />
<glyph unicode="&#xc5;" glyph-name="Aring" horiz-adv-x="729" d="M243 291H420L355 482L336 568H334L312 480L243 291ZM321 788Q321 771 336 763T366 754Q389 754 402 762T415 787Q415 810 402 819T369 828Q348 828 335 819T321 788ZM238 788Q238 829 274 853T371
878Q397 878 420 873T460 856T488 829T498 791Q498 752 462 728Q438 712 405 706L654 67Q674 63 694 56T729 38V0H416V38Q435 47 457 55T499 67L441 226H219L160 67Q206 61 247 38V0H0V38Q16 48 34 55T71 67L327 707Q293 712 272 727Q238 750 238 788Z" />
<glyph unicode="&#xc6;" glyph-name="AE" horiz-adv-x="959" d="M901 700Q899 655 894 607T881 517H839L793 635H606V390H729L773 467H804Q809 418 809 358T804 246H773L729 325H606V65H801L854 192H896Q900 173 903 149T910 100T914 48T916 0H379V38Q395 46 415
54T456 67L458 244H273L170 67Q211 59 247 38V0H5V38Q21 48 39 55T75 67L423 638Q408 643 393 648T365 662V700H901ZM310 309H458L461 594H459L423 504L310 309Z" />
<glyph unicode="&#xc7;" glyph-name="Ccedilla" horiz-adv-x="652" d="M540 210H581Q585 194 588 172T594 124T598 73T599 28Q581 16 558 9T508 -3T455 -10T400 -12L376 -70Q436 -72 473 -93T511 -159Q511 -192 489 -216T434 -255T365 -278T299 -285V-239Q334
-234 356 -219T378 -176Q377 -153 361 -140T302 -125L338 -8Q269 -1 214 23T120 92T60 200T39 351Q39 446 67 514T144 627T255 691T389 712Q455 712 508 703T596 677Q596 661 595 636T590 584T582 530T573 485H531L476 636Q467 641 447 644T406 647Q365 647 329
631T265 578T221 486T205 350Q205 207 262 130T417 53Q445 53 464 57T491 70L540 210Z" />
<glyph unicode="&#xc8;" glyph-name="Egrave" horiz-adv-x="604" d="M546 700Q544 655 539 607T526 517H485L439 635H252V390H374L418 467H450Q455 418 455 358T450 246H418L374 325H252V65H447L500 192H541Q545 173 549 149T555 100T559 48T561 0H20V38Q37 47
58 55T102 67V633Q82 637 60 644T20 662V700H546ZM370 764L336 745L100 841V861Q103 870 121 877T163 890T209 898T243 898L370 764Z" />
<glyph unicode="&#xc9;" glyph-name="Eacute" horiz-adv-x="604" d="M546 700Q544 655 539 607T526 517H485L439 635H252V390H374L418 467H450Q455 418 455 358T450 246H418L374 325H252V65H447L500 192H541Q545 173 549 149T555 100T559 48T561 0H20V38Q37 47
58 55T102 67V633Q82 637 60 644T20 662V700H546ZM362 898Q378 899 398 896T438 888T473 875T495 861V841L248 745L220 769L362 898Z" />
<glyph unicode="&#xca;" glyph-name="Ecircumflex" horiz-adv-x="604" d="M546 700Q544 655 539 607T526 517H485L439 635H252V390H374L418 467H450Q455 418 455 358T450 246H418L374 325H252V65H447L500 192H541Q545 173 549 149T555 100T559 48T561 0H20V38Q37
47 58 55T102 67V633Q82 637 60 644T20 662V700H546ZM182 743L154 771L281 888Q291 893 312 893T343 888L468 774L440 744L308 800L182 743Z" />
<glyph unicode="&#xcb;" glyph-name="Edieresis" horiz-adv-x="604" d="M546 700Q544 655 539 607T526 517H485L439 635H252V390H374L418 467H450Q455 418 455 358T450 246H418L374 325H252V65H447L500 192H541Q545 173 549 149T555 100T559 48T561 0H20V38Q37
47 58 55T102 67V633Q82 637 60 644T20 662V700H546ZM93 793Q93 825 116 841T174 857Q209 857 232 841T255 793Q255 765 232 750T174 734Q139 734 116 749T93 793ZM338 793Q338 825 361 841T420 857Q455 857 478 841T501 793Q501 765 478 750T420 734Q385 734 362
749T338 793Z" />
<glyph unicode="&#xcc;" glyph-name="Igrave" horiz-adv-x="372" d="M342 0H30V38Q70 60 111 67V633Q91 636 69 644T30 662V700H342V662Q324 651 303 644T261 633V67Q281 63 302 56T342 38V0ZM558 764L524 745L288 841V861Q291 870 309 877T351 890T397 898T431
898L558 764Z" />
<glyph unicode="&#xcd;" glyph-name="Iacute" horiz-adv-x="372" d="M342 0H30V38Q70 60 111 67V633Q91 636 69 644T30 662V700H342V662Q324 651 303 644T261 633V67Q281 63 302 56T342 38V0ZM219 898Q235 899 255 896T295 888T330 875T352 861V841L105 745L77
769L219 898Z" />
<glyph unicode="&#xce;" glyph-name="Icircumflex" horiz-adv-x="372" d="M342 0H30V38Q70 60 111 67V633Q91 636 69 644T30 662V700H342V662Q324 651 303 644T261 633V67Q281 63 302 56T342 38V0ZM314 743L286 771L413 888Q423 893 444 893T475 888L600 774L572
744L440 800L314 743Z" />
<glyph unicode="&#xcf;" glyph-name="Idieresis" horiz-adv-x="372" d="M342 0H30V38Q70 60 111 67V633Q91 636 69 644T30 662V700H342V662Q324 651 303 644T261 633V67Q281 63 302 56T342 38V0ZM239 793Q239 825 262 841T320 857Q355 857 378 841T401 793Q401
765 378 750T320 734Q285 734 262 749T239 793ZM484 793Q484 825 507 841T566 857Q601 857 624 841T647 793Q647 765 624 750T566 734Q531 734 508 749T484 793Z" />
<glyph unicode="&#xd0;" glyph-name="Eth" horiz-adv-x="741" d="M22 389H107V633Q84 638 63 645T25 662V700H141Q158 700 183 701T235 703T287 706T331 708Q418 708 486 685T602 618T675 509T701 359Q701 276 677 208T605 92T484 18T311 -9Q298 -9 276 -8T229
-5T179 -2T135 0H25V38Q42 48 63 55T107 67V329H22V389ZM318 643Q300 643 282 642T251 639V389H404V329H251V60Q255 59 265 59T285 58T306 57T321 56Q379 56 419 80T486 145T524 241T536 358Q536 413 524 464T485 555T418 619T318 643Z" />
<glyph unicode="&#xd1;" glyph-name="Ntilde" horiz-adv-x="758" d="M490 700H738V662Q719 647 696 636T653 618V-12H568L215 498L175 575H172L181 495V78Q201 73 225 62T267 38V0H20V38Q38 50 59 60T104 78V624Q84 632 64 642T28 663V700H244L531 284L577 198H581L576
284V618Q552 626 530 637T490 662V700ZM556 817Q524 785 496 769T432 752Q413 752 397 757T364 769T333 780T302 786Q288 786 272 781T239 761L211 808Q287 876 346 876Q364 876 380 871T412 860T442 849T473 844Q486 844 502 848T534 864L556 817Z" />
<glyph unicode="&#xd2;" glyph-name="Ograve" horiz-adv-x="754" d="M39 350Q39 428 61 494T126 609T232 685T377 712Q459 712 522 685T627 610T692 495T714 350Q714 272 692 206T628 91T522 15T377 -12Q295 -12 232 15T126 90T61 205T39 350ZM209 350Q209 286
219 232T250 138T305 76T386 53Q429 53 459 75T508 137T535 231T544 350Q544 414 535 468T505 562T451 624T369 647Q323 647 292 625T243 563T217 469T209 350ZM463 764L429 745L193 841V861Q196 870 214 877T256 890T302 898T336 898L463 764Z" />
<glyph unicode="&#xd3;" glyph-name="Oacute" horiz-adv-x="754" d="M39 350Q39 428 61 494T126 609T232 685T377 712Q459 712 522 685T627 610T692 495T714 350Q714 272 692 206T628 91T522 15T377 -12Q295 -12 232 15T126 90T61 205T39 350ZM209 350Q209 286
219 232T250 138T305 76T386 53Q429 53 459 75T508 137T535 231T544 350Q544 414 535 468T505 562T451 624T369 647Q323 647 292 625T243 563T217 469T209 350ZM425 898Q441 899 461 896T501 888T536 875T558 861V841L311 745L283 769L425 898Z" />
<glyph unicode="&#xd4;" glyph-name="Ocircumflex" horiz-adv-x="754" d="M39 350Q39 428 61 494T126 609T232 685T377 712Q459 712 522 685T627 610T692 495T714 350Q714 272 692 206T628 91T522 15T377 -12Q295 -12 232 15T126 90T61 205T39 350ZM209 350Q209
286 219 232T250 138T305 76T386 53Q429 53 459 75T508 137T535 231T544 350Q544 414 535 468T505 562T451 624T369 647Q323 647 292 625T243 563T217 469T209 350ZM248 743L220 771L347 888Q357 893 378 893T409 888L534 774L506 744L374 800L248 743Z" />
<glyph unicode="&#xd5;" glyph-name="Otilde" horiz-adv-x="754" d="M39 350Q39 428 61 494T126 609T232 685T377 712Q459 712 522 685T627 610T692 495T714 350Q714 272 692 206T628 91T522 15T377 -12Q295 -12 232 15T126 90T61 205T39 350ZM209 350Q209 286
219 232T250 138T305 76T386 53Q429 53 459 75T508 137T535 231T544 350Q544 414 535 468T505 562T451 624T369 647Q323 647 292 625T243 563T217 469T209 350ZM550 817Q518 785 490 769T426 752Q407 752 391 757T358 769T327 780T296 786Q282 786 266 781T233
761L205 808Q281 876 340 876Q358 876 374 871T406 860T436 849T467 844Q480 844 496 848T528 864L550 817Z" />
<glyph unicode="&#xd6;" glyph-name="Odieresis" horiz-adv-x="754" d="M39 350Q39 428 61 494T126 609T232 685T377 712Q459 712 522 685T627 610T692 495T714 350Q714 272 692 206T628 91T522 15T377 -12Q295 -12 232 15T126 90T61 205T39 350ZM209 350Q209
286 219 232T250 138T305 76T386 53Q429 53 459 75T508 137T535 231T544 350Q544 414 535 468T505 562T451 624T369 647Q323 647 292 625T243 563T217 469T209 350ZM173 793Q173 825 196 841T254 857Q289 857 312 841T335 793Q335 765 312 750T254 734Q219 734
196 749T173 793ZM418 793Q418 825 441 841T500 857Q535 857 558 841T581 793Q581 765 558 750T500 734Q465 734 442 749T418 793Z" />
<glyph unicode="&#xd7;" glyph-name="multiply" horiz-adv-x="565" d="M94 213L224 344L96 473L152 529L281 401L412 531L468 475L338 344L471 211L414 154L281 287L150 157L94 213Z" />
<glyph unicode="&#xd8;" glyph-name="Oslash" horiz-adv-x="754" d="M39 350Q39 428 61 494T126 609T232 685T377 712Q425 712 466 702T542 674L569 718L632 679L603 633Q658 584 686 512T714 350Q714 272 692 206T628 91T522 15T377 -12Q329 -12 289 -3T214 24L188
-18L127 21L153 63Q96 112 68 185T39 350ZM209 350Q209 305 216 266T237 194L486 588Q466 616 437 631T369 647Q323 647 292 625T243 563T217 469T209 350ZM544 350Q544 393 538 431T518 501L270 110Q312 53 386 53Q429 53 459 75T508 137T535 231T544 350Z" />
<glyph unicode="&#xd9;" glyph-name="Ugrave" horiz-adv-x="715" d="M7 700H315V662Q282 641 239 633V248Q239 199 250 166T282 113T332 83T399 74Q432 74 459 83T507 114T539 169T550 253V628Q527 633 503 642T462 662V700H710V662Q692 649 670 641T627 628V252Q627
124 560 58T369 -9Q235 -9 162 51T89 243V633Q69 636 47 643T7 662V700ZM452 764L418 745L182 841V861Q185 870 203 877T245 890T291 898T325 898L452 764Z" />
<glyph unicode="&#xda;" glyph-name="Uacute" horiz-adv-x="715" d="M7 700H315V662Q282 641 239 633V248Q239 199 250 166T282 113T332 83T399 74Q432 74 459 83T507 114T539 169T550 253V628Q527 633 503 642T462 662V700H710V662Q692 649 670 641T627 628V252Q627
124 560 58T369 -9Q235 -9 162 51T89 243V633Q69 636 47 643T7 662V700ZM499 898Q515 899 535 896T575 888T610 875T632 861V841L385 745L357 769L499 898Z" />
<glyph unicode="&#xdb;" glyph-name="Ucircumflex" horiz-adv-x="715" d="M7 700H315V662Q282 641 239 633V248Q239 199 250 166T282 113T332 83T399 74Q432 74 459 83T507 114T539 169T550 253V628Q527 633 503 642T462 662V700H710V662Q692 649 670 641T627
628V252Q627 124 560 58T369 -9Q235 -9 162 51T89 243V633Q69 636 47 643T7 662V700ZM263 743L235 771L362 888Q372 893 393 893T424 888L549 774L521 744L389 800L263 743Z" />
<glyph unicode="&#xdc;" glyph-name="Udieresis" horiz-adv-x="715" d="M7 700H315V662Q282 641 239 633V248Q239 199 250 166T282 113T332 83T399 74Q432 74 459 83T507 114T539 169T550 253V628Q527 633 503 642T462 662V700H710V662Q692 649 670 641T627 628V252Q627
124 560 58T369 -9Q235 -9 162 51T89 243V633Q69 636 47 643T7 662V700ZM186 793Q186 825 209 841T267 857Q302 857 325 841T348 793Q348 765 325 750T267 734Q232 734 209 749T186 793ZM431 793Q431 825 454 841T513 857Q548 857 571 841T594 793Q594 765 571
750T513 734Q478 734 455 749T431 793Z" />
<glyph unicode="&#xdd;" glyph-name="Yacute" horiz-adv-x="698" d="M453 700H698V662Q683 653 665 645T627 633L433 293V67Q453 65 472 57T509 38V0H201V38Q218 47 239 55T283 67V292L81 633Q58 637 38 645T0 662V700H328V662Q314 654 296 646T254 633L397 365L533
633Q510 638 489 646T453 662V700ZM494 898Q510 899 530 896T570 888T605 875T627 861V841L380 745L352 769L494 898Z" />
<glyph unicode="&#xde;" glyph-name="Thorn" horiz-adv-x="636" d="M252 63Q279 60 305 52T353 33V0H20V33Q39 44 60 51T102 62V638Q82 641 60 649T21 667V700H333V667Q315 656 294 649T252 638V593Q272 595 296 596T339 598Q392 598 440 588T526 553T586 490T608
391Q608 335 586 294T525 226T436 186T332 172Q327 172 316 172T293 172T269 173T252 175V63ZM306 533Q286 533 275 532T252 527V241Q261 238 279 238T308 237Q335 237 359 245T402 272T432 318T443 386Q443 461 407 497T306 533Z" />
<glyph unicode="&#xdf;" glyph-name="germandbls" horiz-adv-x="701" d="M458 584Q458 635 430 665T359 695Q337 695 316 690T279 669T253 621T243 537V0H33V39Q64 57 99 63V437H23V476Q58 498 99 509V544Q99 606 124 646T188 710T272 743T359 752Q474 752 532
704T592 575Q562 570 534 562T485 539T450 503T437 452Q437 421 454 398T499 353T556 312T614 266T658 210T676 138Q676 68 624 28T470 -12Q422 -12 374 -2T288 26Q290 56 298 79T317 120H351L420 54Q431 48 442 47T465 45Q497 45 519 62T542 109Q542 138 525 159T480
201T423 241T365 286T321 343T303 420Q303 480 346 521T458 584Z" />
<glyph unicode="&#xe0;" glyph-name="agrave" horiz-adv-x="557" d="M470 145Q470 123 470 107T473 73L542 63V28Q530 22 510 16T467 5T422 -4T383 -10H349Q339 13 337 36T334 92H329Q324 72 312 54T282 21T238 -3T182 -12Q149 -12 121 -2T72 26T39 69T27 127Q27
172 44 201T97 248T191 276T331 289Q339 375 324 415T259 455Q228 455 202 445L155 325H111Q103 337 96 352T82 385T71 421T64 456Q102 482 162 497T289 512Q346 512 382 500T438 466T467 415T475 353Q475 293 473 245T470 145ZM245 68Q266 68 281 76T306 95T322
119T331 142V242Q284 241 254 236T207 220T184 191T177 148Q177 110 195 89T245 68ZM354 589L309 567L123 712V741Q129 747 149 752T191 761T234 764T261 763L354 589Z" />
<glyph unicode="&#xe1;" glyph-name="aacute" horiz-adv-x="557" d="M470 145Q470 123 470 107T473 73L542 63V28Q530 22 510 16T467 5T422 -4T383 -10H349Q339 13 337 36T334 92H329Q324 72 312 54T282 21T238 -3T182 -12Q149 -12 121 -2T72 26T39 69T27 127Q27
172 44 201T97 248T191 276T331 289Q339 375 324 415T259 455Q228 455 202 445L155 325H111Q103 337 96 352T82 385T71 421T64 456Q102 482 162 497T289 512Q346 512 382 500T438 466T467 415T475 353Q475 293 473 245T470 145ZM245 68Q266 68 281 76T306 95T322
119T331 142V242Q284 241 254 236T207 220T184 191T177 148Q177 110 195 89T245 68ZM316 763Q324 765 342 765T381 761T417 753T439 741V717L248 562L208 584L316 763Z" />
<glyph unicode="&#xe2;" glyph-name="acircumflex" horiz-adv-x="557" d="M470 145Q470 123 470 107T473 73L542 63V28Q530 22 510 16T467 5T422 -4T383 -10H349Q339 13 337 36T334 92H329Q324 72 312 54T282 21T238 -3T182 -12Q149 -12 121 -2T72 26T39 69T27
127Q27 172 44 201T97 248T191 276T331 289Q339 375 324 415T259 455Q228 455 202 445L155 325H111Q103 337 96 352T82 385T71 421T64 456Q102 482 162 497T289 512Q346 512 382 500T438 466T467 415T475 353Q475 293 473 245T470 145ZM245 68Q266 68 281 76T306
95T322 119T331 142V242Q284 241 254 236T207 220T184 191T177 148Q177 110 195 89T245 68ZM186 577L144 602L254 788Q260 793 278 793T306 788L420 603L379 577L276 675L186 577Z" />
<glyph unicode="&#xe3;" glyph-name="atilde" horiz-adv-x="557" d="M470 145Q470 123 470 107T473 73L542 63V28Q530 22 510 16T467 5T422 -4T383 -10H349Q339 13 337 36T334 92H329Q324 72 312 54T282 21T238 -3T182 -12Q149 -12 121 -2T72 26T39 69T27 127Q27
172 44 201T97 248T191 276T331 289Q339 375 324 415T259 455Q228 455 202 445L155 325H111Q103 337 96 352T82 385T71 421T64 456Q102 482 162 497T289 512Q346 512 382 500T438 466T467 415T475 353Q475 293 473 245T470 145ZM245 68Q266 68 281 76T306 95T322
119T331 142V242Q284 241 254 236T207 220T184 191T177 148Q177 110 195 89T245 68ZM429 667Q399 633 367 618T312 602Q294 602 278 607T247 619T218 630T188 636Q175 636 162 632T132 616L104 658Q141 696 174 711T231 726Q249 726 264 721T294 710T322 699T352
694Q365 694 378 696T407 709L429 667Z" />
<glyph unicode="&#xe4;" glyph-name="adieresis" horiz-adv-x="557" d="M470 145Q470 123 470 107T473 73L542 63V28Q530 22 510 16T467 5T422 -4T383 -10H349Q339 13 337 36T334 92H329Q324 72 312 54T282 21T238 -3T182 -12Q149 -12 121 -2T72 26T39 69T27 127Q27
172 44 201T97 248T191 276T331 289Q339 375 324 415T259 455Q228 455 202 445L155 325H111Q103 337 96 352T82 385T71 421T64 456Q102 482 162 497T289 512Q346 512 382 500T438 466T467 415T475 353Q475 293 473 245T470 145ZM245 68Q266 68 281 76T306 95T322
119T331 142V242Q284 241 254 236T207 220T184 191T177 148Q177 110 195 89T245 68ZM74 659Q74 691 94 710T147 729Q179 729 199 710T220 659Q220 629 200 610T147 591Q114 591 94 610T74 659ZM313 659Q313 691 333 710T385 729Q418 729 438 710T459 659Q459 629
439 610T385 591Q353 591 333 610T313 659Z" />
<glyph unicode="&#xe5;" glyph-name="aring" horiz-adv-x="557" d="M470 145Q470 123 470 107T473 73L542 63V28Q530 22 510 16T467 5T422 -4T383 -10H349Q339 13 337 36T334 92H329Q324 72 312 54T282 21T238 -3T182 -12Q149 -12 121 -2T72 26T39 69T27 127Q27
172 44 201T97 248T191 276T331 289Q339 375 324 415T259 455Q228 455 202 445L155 325H111Q103 337 96 352T82 385T71 421T64 456Q102 482 162 497T289 512Q346 512 382 500T438 466T467 415T475 353Q475 293 473 245T470 145ZM245 68Q266 68 281 76T306 95T322
119T331 142V242Q284 241 254 236T207 220T184 191T177 148Q177 110 195 89T245 68ZM154 679Q154 720 184 750T272 780Q325 780 354 753T384 682Q384 640 353 612T271 584Q213 584 184 610T154 679ZM229 681Q229 658 240 646T268 634Q309 634 309 678Q309 705 298
717T269 730Q229 730 229 681Z" />
<glyph unicode="&#xe6;" glyph-name="ae" horiz-adv-x="823" d="M424 465Q441 483 474 497T570 512Q621 512 665 498T739 452T780 368T779 241H472Q473 162 513 115T629 68Q663 68 698 78T753 104L772 84Q764 67 747 50T704 19T645 -3T572 -12Q506 -12 449 12T357
94Q350 73 334 54T294 20T242 -3T182 -12Q149 -12 121 -2T72 26T39 69T27 127Q27 172 43 201T96 248T190 276T330 289Q338 375 324 415T259 455Q228 455 202 445L155 325H111Q103 337 96 352T82 385T71 421T64 456Q102 482 162 497T289 512Q350 512 380 499T424
465ZM245 68Q266 68 281 75T306 94T321 117T330 140V242Q283 241 254 236T207 220T184 191T177 148Q177 110 195 89T245 68ZM566 455Q546 455 531 448T504 423T485 373T475 293H636Q643 371 627 413T566 455Z" />
<glyph unicode="&#xe7;" glyph-name="ccedilla" horiz-adv-x="484" d="M456 81Q449 61 433 45T393 15T342 -5T282 -12L261 -68Q321 -71 352 -89T385 -144Q385 -173 368 -194T323 -229T260 -250T190 -257V-218Q260 -207 260 -161Q259 -138 241 -128T187 -114L225
-7Q124 8 78 76T31 250Q31 377 100 444T298 512Q347 512 388 502T456 477Q454 460 451 440T443 399T432 359T420 326H371L329 445Q322 450 314 452T290 455Q264 455 245 446T213 413T193 352T186 258Q186 217 195 183T222 123T269 83T335 68Q370 68 396 78T440
102L456 81Z" />
<glyph unicode="&#xe8;" glyph-name="egrave" horiz-adv-x="537" d="M486 84Q478 67 461 50T418 19T359 -3T286 -12Q224 -12 176 6T96 59T48 142T31 250Q31 378 98 445T284 512Q335 512 379 498T453 452T494 368T493 241H186Q187 162 226 115T343 68Q376 68 411
78T467 104L486 84ZM280 455Q260 455 245 448T218 423T199 373T189 293H350Q357 371 341 413T280 455ZM356 589L311 567L125 712V741Q131 747 151 752T193 761T236 764T263 763L356 589Z" />
<glyph unicode="&#xe9;" glyph-name="eacute" horiz-adv-x="537" d="M486 84Q478 67 461 50T418 19T359 -3T286 -12Q224 -12 176 6T96 59T48 142T31 250Q31 378 98 445T284 512Q335 512 379 498T453 452T494 368T493 241H186Q187 162 226 115T343 68Q376 68 411
78T467 104L486 84ZM280 455Q260 455 245 448T218 423T199 373T189 293H350Q357 371 341 413T280 455ZM308 763Q316 765 334 765T373 761T409 753T431 741V717L240 562L200 584L308 763Z" />
<glyph unicode="&#xea;" glyph-name="ecircumflex" horiz-adv-x="537" d="M486 84Q478 67 461 50T418 19T359 -3T286 -12Q224 -12 176 6T96 59T48 142T31 250Q31 378 98 445T284 512Q335 512 379 498T453 452T494 368T493 241H186Q187 162 226 115T343 68Q376
68 411 78T467 104L486 84ZM280 455Q260 455 245 448T218 423T199 373T189 293H350Q357 371 341 413T280 455ZM183 577L141 602L251 788Q257 793 275 793T303 788L417 603L376 577L273 675L183 577Z" />
<glyph unicode="&#xeb;" glyph-name="edieresis" horiz-adv-x="537" d="M486 84Q478 67 461 50T418 19T359 -3T286 -12Q224 -12 176 6T96 59T48 142T31 250Q31 378 98 445T284 512Q335 512 379 498T453 452T494 368T493 241H186Q187 162 226 115T343 68Q376 68
411 78T467 104L486 84ZM280 455Q260 455 245 448T218 423T199 373T189 293H350Q357 371 341 413T280 455ZM83 659Q83 691 103 710T156 729Q188 729 208 710T229 659Q229 629 209 610T156 591Q123 591 103 610T83 659ZM322 659Q322 691 342 710T394 729Q427 729
447 710T468 659Q468 629 448 610T394 591Q362 591 342 610T322 659Z" />
<glyph unicode="&#xec;" glyph-name="igrave" horiz-adv-x="332" d="M307 0H31V39Q46 47 62 52T97 63V429L31 437V476Q46 482 68 488T116 498T165 506T207 512H241V63Q261 58 277 53T307 39V0ZM489 589L444 567L258 712V741Q264 747 284 752T326 761T369 764T396
763L489 589Z" />
<glyph unicode="&#xed;" glyph-name="iacute" horiz-adv-x="332" d="M307 0H31V39Q46 47 62 52T97 63V429L31 437V476Q46 482 68 488T116 498T165 506T207 512H241V63Q261 58 277 53T307 39V0ZM189 763Q197 765 215 765T254 761T290 753T312 741V717L121 562L81
584L189 763Z" />
<glyph unicode="&#xee;" glyph-name="icircumflex" horiz-adv-x="332" d="M307 0H31V39Q46 47 62 52T97 63V429L31 437V476Q46 482 68 488T116 498T165 506T207 512H241V63Q261 58 277 53T307 39V0ZM324 577L282 602L392 788Q398 793 416 793T444 788L558 603L517
577L414 675L324 577Z" />
<glyph unicode="&#xef;" glyph-name="idieresis" horiz-adv-x="332" d="M307 0H31V39Q46 47 62 52T97 63V429L31 437V476Q46 482 68 488T116 498T165 506T207 512H241V63Q261 58 277 53T307 39V0ZM232 659Q232 691 252 710T305 729Q337 729 357 710T378 659Q378
629 358 610T305 591Q272 591 252 610T232 659ZM471 659Q471 691 491 710T543 729Q576 729 596 710T617 659Q617 629 597 610T543 591Q511 591 491 610T471 659Z" />
<glyph unicode="&#xf0;" glyph-name="eth" horiz-adv-x="577" d="M175 610L271 649Q246 673 217 692T156 724V750H253Q308 733 364 688L462 728L489 672L415 641Q443 610 467 572T509 490T537 395T548 289Q548 224 532 169T482 73T400 11T285 -12Q224 -12 176
6T94 59T42 139T24 242Q24 309 43 360T95 444T169 495T253 512Q304 512 333 495T385 454Q374 490 357 527T314 600L203 554L175 610ZM179 242Q179 201 185 166T206 105T241 64T292 49Q347 49 370 106T393 274Q393 327 390 357T382 400Q353 437 289 437Q264 437
244 427T210 394T187 334T179 242Z" />
<glyph unicode="&#xf1;" glyph-name="ntilde" horiz-adv-x="644" d="M632 0H367V39Q380 46 392 51T422 63V298Q422 361 404 396T340 432Q302 432 275 408T233 341V63Q249 59 261 54T288 39V0H23V39Q48 52 89 63V429L23 437V476Q36 482 57 487T102 498T152 506T199
512H233V409H234Q255 451 297 481T399 512Q438 512 469 503T521 469T554 405T566 302V63Q606 56 632 39V0ZM487 667Q457 633 425 618T370 602Q352 602 336 607T305 619T276 630T246 636Q233 636 220 632T190 616L162 658Q199 696 232 711T289 726Q307 726 322 721T352
710T380 699T410 694Q423 694 436 696T465 709L487 667Z" />
<glyph unicode="&#xf2;" glyph-name="ograve" horiz-adv-x="594" d="M31 250Q31 311 49 359T102 442T186 494T297 512Q367 512 417 493T500 439T548 356T563 250Q563 189 545 141T493 58T409 6T297 -12Q229 -12 179 7T96 61T47 144T31 250ZM186 250Q186 205 191
168T211 104T249 64T311 49Q333 49 351 59T382 93T401 155T408 250Q408 296 403 333T384 396T347 436T289 451Q263 451 244 441T212 407T193 345T186 250ZM375 589L330 567L144 712V741Q150 747 170 752T212 761T255 764T282 763L375 589Z" />
<glyph unicode="&#xf3;" glyph-name="oacute" horiz-adv-x="594" d="M31 250Q31 311 49 359T102 442T186 494T297 512Q367 512 417 493T500 439T548 356T563 250Q563 189 545 141T493 58T409 6T297 -12Q229 -12 179 7T96 61T47 144T31 250ZM186 250Q186 205 191
168T211 104T249 64T311 49Q333 49 351 59T382 93T401 155T408 250Q408 296 403 333T384 396T347 436T289 451Q263 451 244 441T212 407T193 345T186 250ZM337 763Q345 765 363 765T402 761T438 753T460 741V717L269 562L229 584L337 763Z" />
<glyph unicode="&#xf4;" glyph-name="ocircumflex" horiz-adv-x="594" d="M31 250Q31 311 49 359T102 442T186 494T297 512Q367 512 417 493T500 439T548 356T563 250Q563 189 545 141T493 58T409 6T297 -12Q229 -12 179 7T96 61T47 144T31 250ZM186 250Q186 205
191 168T211 104T249 64T311 49Q333 49 351 59T382 93T401 155T408 250Q408 296 403 333T384 396T347 436T289 451Q263 451 244 441T212 407T193 345T186 250ZM200 577L158 602L268 788Q274 793 292 793T320 788L434 603L393 577L290 675L200 577Z" />
<glyph unicode="&#xf5;" glyph-name="otilde" horiz-adv-x="594" d="M31 250Q31 311 49 359T102 442T186 494T297 512Q367 512 417 493T500 439T548 356T563 250Q563 189 545 141T493 58T409 6T297 -12Q229 -12 179 7T96 61T47 144T31 250ZM186 250Q186 205 191
168T211 104T249 64T311 49Q333 49 351 59T382 93T401 155T408 250Q408 296 403 333T384 396T347 436T289 451Q263 451 244 441T212 407T193 345T186 250ZM459 667Q429 633 397 618T342 602Q324 602 308 607T277 619T248 630T218 636Q205 636 192 632T162 616L134
658Q171 696 204 711T261 726Q279 726 294 721T324 710T352 699T382 694Q395 694 408 696T437 709L459 667Z" />
<glyph unicode="&#xf6;" glyph-name="odieresis" horiz-adv-x="594" d="M31 250Q31 311 49 359T102 442T186 494T297 512Q367 512 417 493T500 439T548 356T563 250Q563 189 545 141T493 58T409 6T297 -12Q229 -12 179 7T96 61T47 144T31 250ZM186 250Q186 205
191 168T211 104T249 64T311 49Q333 49 351 59T382 93T401 155T408 250Q408 296 403 333T384 396T347 436T289 451Q263 451 244 441T212 407T193 345T186 250ZM105 659Q105 691 125 710T178 729Q210 729 230 710T251 659Q251 629 231 610T178 591Q145 591 125 610T105
659ZM344 659Q344 691 364 710T416 729Q449 729 469 710T490 659Q490 629 470 610T416 591Q384 591 364 610T344 659Z" />
<glyph unicode="&#xf7;" glyph-name="divide" horiz-adv-x="565" d="M57 386H507V306H57V386ZM197 536Q197 572 220 594T281 616Q319 616 343 594T367 536Q367 500 343 479T281 457Q243 457 220 478T197 536ZM197 155Q197 191 220 213T281 235Q319 235 343 213T367
155Q367 119 343 98T281 76Q243 76 220 97T197 155Z" />
<glyph unicode="&#xf8;" glyph-name="oslash" horiz-adv-x="594" d="M114 44Q71 79 51 131T31 250Q31 311 49 359T102 442T186 494T297 512Q336 512 368 506T428 487L472 550L526 512L484 453Q525 418 544 366T563 250Q563 189 545 141T493 58T409 6T297 -12Q225
-12 171 11L123 -58L70 -19L114 44ZM186 250Q186 224 189 202T200 161L374 412Q360 432 340 443T289 455Q236 455 211 409T186 250ZM408 250Q408 297 395 332L223 83Q253 45 314 45Q361 45 384 91T408 250Z" />
<glyph unicode="&#xf9;" glyph-name="ugrave" horiz-adv-x="622" d="M71 198Q71 261 74 315T77 429L11 437V476Q27 482 50 488T99 498T147 506T187 512H221Q221 437 218 365T215 222Q215 140 231 104T293 68Q324 68 350 91T394 167V429L329 437V476Q344 482 366
488T413 498T462 506T504 512H538V71L604 63V28Q590 22 569 16T525 5T480 -4T439 -10H405L398 109H394Q389 88 376 67T343 28T294 -1T232 -12Q194 -12 165 -3T114 31T82 95T71 198ZM388 589L343 567L157 712V741Q163 747 183 752T225 761T268 764T295 763L388 589Z"
/>
<glyph unicode="&#xfa;" glyph-name="uacute" horiz-adv-x="622" d="M71 198Q71 261 74 315T77 429L11 437V476Q27 482 50 488T99 498T147 506T187 512H221Q221 437 218 365T215 222Q215 140 231 104T293 68Q324 68 350 91T394 167V429L329 437V476Q344 482 366
488T413 498T462 506T504 512H538V71L604 63V28Q590 22 569 16T525 5T480 -4T439 -10H405L398 109H394Q389 88 376 67T343 28T294 -1T232 -12Q194 -12 165 -3T114 31T82 95T71 198ZM335 763Q343 765 361 765T400 761T436 753T458 741V717L267 562L227 584L335 763Z"
/>
<glyph unicode="&#xfb;" glyph-name="ucircumflex" horiz-adv-x="622" d="M71 198Q71 261 74 315T77 429L11 437V476Q27 482 50 488T99 498T147 506T187 512H221Q221 437 218 365T215 222Q215 140 231 104T293 68Q324 68 350 91T394 167V429L329 437V476Q344 482
366 488T413 498T462 506T504 512H538V71L604 63V28Q590 22 569 16T525 5T480 -4T439 -10H405L398 109H394Q389 88 376 67T343 28T294 -1T232 -12Q194 -12 165 -3T114 31T82 95T71 198ZM211 577L169 602L279 788Q285 793 303 793T331 788L445 603L404 577L301 675L211
577Z" />
<glyph unicode="&#xfc;" glyph-name="udieresis" horiz-adv-x="622" d="M71 198Q71 261 74 315T77 429L11 437V476Q27 482 50 488T99 498T147 506T187 512H221Q221 437 218 365T215 222Q215 140 231 104T293 68Q324 68 350 91T394 167V429L329 437V476Q344 482
366 488T413 498T462 506T504 512H538V71L604 63V28Q590 22 569 16T525 5T480 -4T439 -10H405L398 109H394Q389 88 376 67T343 28T294 -1T232 -12Q194 -12 165 -3T114 31T82 95T71 198ZM113 659Q113 691 133 710T186 729Q218 729 238 710T259 659Q259 629 239 610T186
591Q153 591 133 610T113 659ZM352 659Q352 691 372 710T424 729Q457 729 477 710T498 659Q498 629 478 610T424 591Q392 591 372 610T352 659Z" />
<glyph unicode="&#xfd;" glyph-name="yacute" horiz-adv-x="528" d="M38 437Q23 441 11 447T-15 461V500H248V462Q227 448 191 437L292 186L309 122H311L327 187L405 437Q375 443 350 461V500H543V461Q522 447 486 437L323 0Q299 -64 275 -104T227 -169T179 -202T131
-215Q121 -206 113 -193T99 -164T89 -132T84 -102L97 -78H219Q228 -64 234 -48T250 0L38 437ZM311 763Q319 765 337 765T376 761T412 753T434 741V717L243 562L203 584L311 763Z" />
<glyph unicode="&#xfe;" glyph-name="thorn" horiz-adv-x="609" d="M86 669L10 677V716Q23 722 46 728T95 738T148 746T196 752H230V400H231Q248 448 284 480T386 512Q430 512 465 498T525 453T563 375T577 261Q577 198 560 147T510 61T431 7T325 -12Q291 -12
272 -8T230 8V-137Q246 -139 262 -144T296 -161V-200H20V-161Q54 -145 86 -137V669ZM328 432Q294 432 268 408T230 334V68Q246 56 264 51T311 45Q368 45 395 100T422 261Q422 343 402 387T328 432Z" />
<glyph unicode="&#xff;" glyph-name="ydieresis" horiz-adv-x="528" d="M38 437Q23 441 11 447T-15 461V500H248V462Q227 448 191 437L292 186L309 122H311L327 187L405 437Q375 443 350 461V500H543V461Q522 447 486 437L323 0Q299 -64 275 -104T227 -169T179
-202T131 -215Q121 -206 113 -193T99 -164T89 -132T84 -102L97 -78H219Q228 -64 234 -48T250 0L38 437ZM87 659Q87 691 107 710T160 729Q192 729 212 710T233 659Q233 629 213 610T160 591Q127 591 107 610T87 659ZM326 659Q326 691 346 710T398 729Q431 729 451
710T472 659Q472 629 452 610T398 591Q366 591 346 610T326 659Z" />
<glyph unicode="&#x2013;" glyph-name="endash" horiz-adv-x="626" d="M72 327H554V237H72V327Z" />
<glyph unicode="&#x2014;" glyph-name="emdash" horiz-adv-x="886" d="M72 327H814V237H72V327Z" />
<glyph unicode="&#x2018;" glyph-name="quoteleft" horiz-adv-x="308" d="M244 778Q205 768 185 749T166 702Q179 686 198 677T240 660Q245 642 242 624T228 590T205 563T177 550Q156 551 136 558T101 580T77 613T67 658Q67 688 79 715T112 765T164 802T230 824L244 778Z" />
<glyph unicode="&#x2019;" glyph-name="quoteright" horiz-adv-x="308" d="M62 460Q101 470 123 495T143 547Q130 563 111 572T69 589Q64 607 67 625T81 659T104 686T132 699Q152 698 172 691T207 670T232 636T242 587Q242 560 230 532T197 480T145 439T80 414L62 460Z" />
<glyph unicode="&#x201a;" glyph-name="quotesinglbase" horiz-adv-x="308" d="M62 -103Q101 -93 123 -68T143 -16Q130 0 111 9T69 26Q64 44 67 62T81 96T104 123T132 136Q152 135 172 128T207 107T232 73T242 24Q242 -3 230 -31T197 -83T145 -124T80 -149L62 -103Z" />
<glyph unicode="&#x201c;" glyph-name="quotedblleft" horiz-adv-x="513" d="M449 778Q410 768 390 749T371 702Q384 686 403 677T445 660Q450 642 447 624T433 590T410 563T382 550Q361 551 341 558T306 580T282 613T272 658Q272 688 284 715T317 765T369 802T435
824L449 778ZM244 778Q205 768 185 749T166 702Q179 686 198 677T240 660Q245 642 242 624T228 590T205 563T177 550Q156 551 136 558T101 580T77 613T67 658Q67 688 79 715T112 765T164 802T230 824L244 778Z" />
<glyph unicode="&#x201d;" glyph-name="quotedblright" horiz-adv-x="513" d="M267 460Q306 470 328 495T348 547Q335 563 316 572T274 589Q269 607 272 625T286 659T309 686T337 699Q357 698 377 691T412 670T437 636T447 587Q447 560 435 532T402 480T350 439T285
414L267 460ZM62 460Q101 470 123 495T143 547Q130 563 111 572T69 589Q64 607 67 625T81 659T104 686T132 699Q152 698 172 691T207 670T232 636T242 587Q242 560 230 532T197 480T145 439T80 414L62 460Z" />
<glyph unicode="&#x201e;" glyph-name="quotedblbase" horiz-adv-x="513" d="M267 -103Q306 -93 328 -68T348 -16Q335 0 316 9T274 26Q269 44 272 62T286 96T309 123T337 136Q357 135 377 128T412 107T437 73T447 24Q447 -3 435 -31T402 -83T350 -124T285 -149L267
-103ZM62 -103Q101 -93 123 -68T143 -16Q130 0 111 9T69 26Q64 44 67 62T81 96T104 123T132 136Q152 135 172 128T207 107T232 73T242 24Q242 -3 230 -31T197 -83T145 -124T80 -149L62 -103Z" />
<glyph unicode="&#x2022;" glyph-name="bullet" horiz-adv-x="487" d="M88 311Q88 345 100 374T133 423T182 454T243 466Q275 466 303 456T353 425T386 376T398 311Q398 275 386 246T353 197T304 167T243 156Q211 156 183 166T133 197T100 246T88 311Z" />
<glyph unicode="&#x2039;" glyph-name="guilsinglleft" horiz-adv-x="314" d="M20 259L223 482L261 445L160 266L267 77L230 44L20 259Z" />
<glyph unicode="&#x203a;" glyph-name="guilsinglright" horiz-adv-x="314" d="M87 44L50 82L154 263L50 450L87 482L294 266L87 44Z" />
</font>
</defs>
</svg>
